<?xml version="1.0" encoding="UTF-8" standalone="no"?>
<!-- Created with Inkscape (http://www.inkscape.org/) -->

<svg
   version="1.1"
   id="svg2"
   width="1935.4"
   height="1547.7067"
   viewBox="0 0 1935.4 1547.7067"
   sodipodi:docname="reshot-illustration-dentist-doctor-RS65J8F2CY.eps"
   xmlns:inkscape="http://www.inkscape.org/namespaces/inkscape"
   xmlns:sodipodi="http://sodipodi.sourceforge.net/DTD/sodipodi-0.dtd"
   xmlns="http://www.w3.org/2000/svg"
   xmlns:svg="http://www.w3.org/2000/svg">
  <defs
     id="defs6">
    <clipPath
       clipPathUnits="userSpaceOnUse"
       id="clipPath22">
      <path
         d="M 2950.55,8549.94 C 2254.4,8507.32 1543.72,8267.71 1069.04,7756.71 594.355,7245.71 415.402,6431.73 761.906,5826.43 1241.16,4989.23 2502.38,4781.03 2841.8,3878.04 c 188.9,-502.58 31.22,-1103.83 294.53,-1571.75 188.09,-334.25 559.16,-529.15 933.15,-614.17 374.01,-85.02 761.84,-77.93 1143.97,-110.82 C 6147.1,1501 7041.95,1182.7 7919.89,855 8797.84,527.402 9680.49,185.102 10608.3,53.3008 c 927.8,-131.6992 1920.9,-34.6016 2713.6,465.1012 792.7,499.698 1332.4,1457.448 1162.2,2378.938 -133.7,723.22 -708.9,1345.98 -1419.3,1536.47 -524.8,140.73 -1176.9,104.58 -1488.7,549.51 -132.9,189.62 -168.4,429.23 -262.3,640.89 -267.7,603.37 -949.1,887.06 -1568.57,1115 -1226.25,451.19 -2452.5,902.39 -3678.75,1353.58 -977.39,359.62 -2076.07,457.15 -3115.93,457.15 z"
         id="path20" />
    </clipPath>
    <linearGradient
       x1="0"
       y1="0"
       x2="1"
       y2="0"
       gradientUnits="userSpaceOnUse"
       gradientTransform="matrix(-14692,9098.73,9098.73,14692,14573.1,-515.599)"
       spreadMethod="pad"
       id="linearGradient28">
      <stop
         style="stop-opacity:1;stop-color:#c7dbfb"
         offset="0"
         id="stop24" />
      <stop
         style="stop-opacity:1;stop-color:#ffffff"
         offset="1"
         id="stop26" />
    </linearGradient>
    <clipPath
       clipPathUnits="userSpaceOnUse"
       id="clipPath84">
      <path
         d="m 3597.73,9507.29 c -21.23,-26.51 -41.23,-54.24 -60.02,-83.28 -26.53,-40.98 -49.78,-83.89 -70.64,-128 -202.12,-93.88 -531.14,-352.77 -531.14,-352.77 l -229.12,34.35 c 0,0 586.71,407.01 890.92,529.7 z"
         id="path82" />
    </clipPath>
    <linearGradient
       x1="0"
       y1="0"
       x2="1"
       y2="0"
       gradientUnits="userSpaceOnUse"
       gradientTransform="matrix(-853.454,-567.059,-567.059,853.454,3638.82,9504.27)"
       spreadMethod="pad"
       id="linearGradient90">
      <stop
         style="stop-opacity:1;stop-color:#c7dbfb"
         offset="0"
         id="stop86" />
      <stop
         style="stop-opacity:1;stop-color:#ffffff"
         offset="1"
         id="stop88" />
    </linearGradient>
    <clipPath
       clipPathUnits="userSpaceOnUse"
       id="clipPath100">
      <path
         d="m 3446.35,7544.8 c -24.84,-109.32 -28.2,-223.33 -11.34,-334.33 l -444.61,-246.24 -54.47,1979.01 c 0,0 329.02,258.89 531.14,352.77 -30.37,-63.87 -55.68,-130.4 -78.21,-197.65 -109.08,-325.54 -155,-678.07 -87.5,-1014.7 36.39,-182.11 105.33,-358.08 144.99,-538.86 z"
         id="path98" />
    </clipPath>
    <linearGradient
       x1="0"
       y1="0"
       x2="1"
       y2="0"
       gradientUnits="userSpaceOnUse"
       gradientTransform="matrix(-406.679,11.4555,11.4555,406.679,3345.8,8126.83)"
       spreadMethod="pad"
       id="linearGradient106">
      <stop
         style="stop-opacity:1;stop-color:#c7dbfb"
         offset="0"
         id="stop102" />
      <stop
         style="stop-opacity:1;stop-color:#ffffff"
         offset="1"
         id="stop104" />
    </linearGradient>
    <clipPath
       clipPathUnits="userSpaceOnUse"
       id="clipPath116">
      <path
         d="m 2990.4,6964.23 -176.08,81.6 -107.51,1931.76 229.12,-34.35 z"
         id="path114" />
    </clipPath>
    <linearGradient
       x1="0"
       y1="0"
       x2="1"
       y2="0"
       gradientUnits="userSpaceOnUse"
       gradientTransform="matrix(28.6383,-1907.39,-1907.39,-28.6383,2834.28,8924.82)"
       spreadMethod="pad"
       id="linearGradient122">
      <stop
         style="stop-opacity:1;stop-color:#c7dbfb"
         offset="0"
         id="stop118" />
      <stop
         style="stop-opacity:1;stop-color:#ffffff"
         offset="1"
         id="stop120" />
    </linearGradient>
    <clipPath
       clipPathUnits="userSpaceOnUse"
       id="clipPath132">
      <path
         d="m 4202.39,6202.15 -1211.99,762.08 444.61,246.24 c 22.78,-150.05 82.69,-294.57 176.82,-413.65 152.94,-193.43 381.45,-316.25 532.83,-510.9 20.98,-26.87 40.14,-54.96 57.73,-83.77 z"
         id="path130" />
    </clipPath>
    <linearGradient
       x1="0"
       y1="0"
       x2="1"
       y2="0"
       gradientUnits="userSpaceOnUse"
       gradientTransform="matrix(-408.11,-335.08,-335.08,408.11,3896.05,6829.23)"
       spreadMethod="pad"
       id="linearGradient138">
      <stop
         style="stop-opacity:1;stop-color:#c7dbfb"
         offset="0"
         id="stop134" />
      <stop
         style="stop-opacity:1;stop-color:#ffffff"
         offset="1"
         id="stop136" />
    </linearGradient>
    <clipPath
       clipPathUnits="userSpaceOnUse"
       id="clipPath148">
      <path
         d="m 4339.06,5839.74 c 0,0 -1002.75,582.85 -1297.08,758.46 -20.96,12.54 -38.44,22.9 -51.58,30.98 -28.45,17.35 -52.3,38.2 -72.31,61.46 -119.56,138 -103.77,355.19 -103.77,355.19 l 176.08,-81.6 1211.99,-762.08 c 67.25,-110.4 110.77,-234.05 136.67,-362.41 z"
         id="path146" />
    </clipPath>
    <linearGradient
       x1="0"
       y1="0"
       x2="1"
       y2="0"
       gradientUnits="userSpaceOnUse"
       gradientTransform="matrix(1525.44,0,0,-1525.44,2813.63,6442.79)"
       spreadMethod="pad"
       id="linearGradient154">
      <stop
         style="stop-opacity:1;stop-color:#c7dbfb"
         offset="0"
         id="stop150" />
      <stop
         style="stop-opacity:1;stop-color:#ffffff"
         offset="1"
         id="stop152" />
    </linearGradient>
    <clipPath
       clipPathUnits="userSpaceOnUse"
       id="clipPath170">
      <path
         d="M 11135.4,5112.62 V 3570.4 l -134.6,-81.48 -162,-97.99 -1116.76,-675.42 4.34,1559.47 z"
         id="path168" />
    </clipPath>
    <linearGradient
       x1="0"
       y1="0"
       x2="1"
       y2="0"
       gradientUnits="userSpaceOnUse"
       gradientTransform="matrix(-1220.04,658.707,658.707,1220.04,10989.3,3611.41)"
       spreadMethod="pad"
       id="linearGradient176">
      <stop
         style="stop-opacity:1;stop-color:#c7dbfb"
         offset="0"
         id="stop172" />
      <stop
         style="stop-opacity:1;stop-color:#ffffff"
         offset="1"
         id="stop174" />
    </linearGradient>
    <clipPath
       clipPathUnits="userSpaceOnUse"
       id="clipPath186">
      <path
         d="M 11135.4,5112.62 9726.38,4274.98 9606.09,4356.57 10781,5047.29 11023.7,5190 Z"
         id="path184" />
    </clipPath>
    <linearGradient
       x1="0"
       y1="0"
       x2="1"
       y2="0"
       gradientUnits="userSpaceOnUse"
       gradientTransform="matrix(1529.33,0,0,-1529.33,9606.1,4732.49)"
       spreadMethod="pad"
       id="linearGradient192">
      <stop
         style="stop-opacity:1;stop-color:#c7dbfb"
         offset="0"
         id="stop188" />
      <stop
         style="stop-opacity:1;stop-color:#ffffff"
         offset="1"
         id="stop190" />
    </linearGradient>
    <clipPath
       clipPathUnits="userSpaceOnUse"
       id="clipPath202">
      <path
         d="m 9726.38,4274.98 -4.34,-1559.47 -39.77,30.98 -76.18,59.3 v 1550.78 z"
         id="path200" />
    </clipPath>
    <linearGradient
       x1="0"
       y1="0"
       x2="1"
       y2="0"
       gradientUnits="userSpaceOnUse"
       gradientTransform="matrix(120.282,0,0,-120.282,9606.1,3536.04)"
       spreadMethod="pad"
       id="linearGradient208">
      <stop
         style="stop-opacity:1;stop-color:#c7dbfb"
         offset="0"
         id="stop204" />
      <stop
         style="stop-opacity:1;stop-color:#ffffff"
         offset="1"
         id="stop206" />
    </linearGradient>
    <clipPath
       clipPathUnits="userSpaceOnUse"
       id="clipPath218">
      <path
         d="m 9722.04,2715.51 c 0,0 -13.62,-9.52 -39.77,-18.92 -33.87,-12.3 -88.83,-24.46 -162.1,-15.78 -78.59,9.39 -178.38,42.54 -296.38,124.98 -55.56,38.81 -118.12,88.46 -184.77,142.46 -168,136.07 -362.77,299.86 -541.87,389.05 -46.89,23.38 -92.68,41.7 -136.67,52.91 -48.94,12.65 -95.69,16.63 -139.08,9.52 -3.63,-0.6 -7.24,-1.33 -10.74,-2.05 -3.36,-0.6 -6.62,-1.44 -9.76,-2.17 -6.38,-1.69 -12.77,-3.62 -19.03,-5.79 -2.05,-0.59 -3.99,-1.32 -5.91,-2.16 -11.21,-4.22 -22.18,-9.28 -32.79,-15.43 -4.33,-2.53 -8.79,-5.18 -13.13,-8.07 -3.14,-2.18 -6.15,-4.35 -9.29,-6.63 -3.13,-2.3 -6.14,-4.58 -9.16,-7.11 -3.01,-2.41 -6.02,-4.94 -9.03,-7.6 l -68.7,81.59 c 0,0 20.01,20.49 61.23,41.47 137.64,69.9 511.5,144.51 1163.06,-526.82 0,0 201.87,-163.31 347.94,-133.17 l 76.18,-59.3 z"
         id="path216" />
    </clipPath>
    <linearGradient
       x1="0"
       y1="0"
       x2="1"
       y2="0"
       gradientUnits="userSpaceOnUse"
       gradientTransform="matrix(567.061,171.837,171.837,-567.061,8793.95,3055.24)"
       spreadMethod="pad"
       id="linearGradient224">
      <stop
         style="stop-opacity:1;stop-color:#c7dbfb"
         offset="0"
         id="stop220" />
      <stop
         style="stop-opacity:1;stop-color:#ffffff"
         offset="1"
         id="stop222" />
    </linearGradient>
    <clipPath
       clipPathUnits="userSpaceOnUse"
       id="clipPath248">
      <path
         d="m 9606.09,3172.3 v -366.51 c -146.07,-30.14 -347.94,133.17 -347.94,133.17 -651.56,671.33 -1025.42,596.72 -1163.06,526.82 127.15,267.68 471.37,141.85 471.37,141.85 647.33,-492.57 1039.63,-435.33 1039.63,-435.33 z"
         id="path246" />
    </clipPath>
    <linearGradient
       x1="0"
       y1="0"
       x2="1"
       y2="0"
       gradientUnits="userSpaceOnUse"
       gradientTransform="matrix(-1709.77,902.14,902.14,1709.77,9832.28,2801.06)"
       spreadMethod="pad"
       id="linearGradient254">
      <stop
         style="stop-opacity:1;stop-color:#c7dbfb"
         offset="0"
         id="stop250" />
      <stop
         style="stop-opacity:1;stop-color:#ffffff"
         offset="1"
         id="stop252" />
    </linearGradient>
    <clipPath
       clipPathUnits="userSpaceOnUse"
       id="clipPath322">
      <path
         d="m 6508.03,5129.91 v -305.14 c 57.96,4.24 103.83,52.75 103.83,111.76 v 81.62 c 0,59.01 -45.87,107.52 -103.83,111.76 z m -8.23,-377.75 h -64.09 v 450.36 h 64.09 c 101.67,0 184.37,-82.71 184.37,-184.37 v -81.62 c 0,-101.66 -82.7,-184.37 -184.37,-184.37 z"
         id="path320" />
    </clipPath>
    <linearGradient
       x1="0"
       y1="0"
       x2="1"
       y2="0"
       gradientUnits="userSpaceOnUse"
       gradientTransform="matrix(206.203,111.693,111.693,-206.203,6550.27,5009.4)"
       spreadMethod="pad"
       id="linearGradient328">
      <stop
         style="stop-opacity:1;stop-color:#c7dbfb"
         offset="0"
         id="stop324" />
      <stop
         style="stop-opacity:1;stop-color:#ffffff"
         offset="1"
         id="stop326" />
    </linearGradient>
    <clipPath
       clipPathUnits="userSpaceOnUse"
       id="clipPath340">
      <path
         d="m 6549.81,5285.93 c 0,-84.24 -142.35,-152.46 -317.95,-152.46 -175.61,0 -317.94,68.22 -317.94,152.46 0,84.25 142.33,152.47 317.94,152.47 175.6,0 317.95,-68.22 317.95,-152.47 z"
         id="path338" />
    </clipPath>
    <linearGradient
       x1="0"
       y1="0"
       x2="1"
       y2="0"
       gradientUnits="userSpaceOnUse"
       gradientTransform="matrix(638.658,-97.3738,-97.3738,-638.658,5889.56,5338.12)"
       spreadMethod="pad"
       id="linearGradient346">
      <stop
         style="stop-opacity:1;stop-color:#c7dbfb"
         offset="0"
         id="stop342" />
      <stop
         style="stop-opacity:1;stop-color:#ffffff"
         offset="1"
         id="stop344" />
    </linearGradient>
    <clipPath
       clipPathUnits="userSpaceOnUse"
       id="clipPath356">
      <path
         d="M 6549.81,5285.93 V 4749.6 c 0,-84.24 -142.35,-152.46 -317.95,-152.46 -175.61,0 -317.94,68.22 -317.94,152.46 v 536.33 c 0,-84.24 142.33,-152.46 317.94,-152.46 175.6,0 317.95,68.22 317.95,152.46 z"
         id="path354" />
    </clipPath>
    <linearGradient
       x1="0"
       y1="0"
       x2="1"
       y2="0"
       gradientUnits="userSpaceOnUse"
       gradientTransform="matrix(-983.765,38.6626,38.6626,983.765,6719.38,4928.36)"
       spreadMethod="pad"
       id="linearGradient362">
      <stop
         style="stop-opacity:1;stop-color:#c7dbfb"
         offset="0"
         id="stop358" />
      <stop
         style="stop-opacity:1;stop-color:#ffffff"
         offset="1"
         id="stop360" />
    </linearGradient>
    <clipPath
       clipPathUnits="userSpaceOnUse"
       id="clipPath372">
      <path
         d="m 6486.16,5285.93 c 0,-9.4 -2.28,-18.68 -6.5,-27.48 -26.04,-54.11 -127.04,-94.49 -247.8,-94.49 -120.77,0 -221.77,40.38 -247.8,94.49 -4.22,8.8 -6.51,18.08 -6.51,27.48 0,67.38 113.9,121.98 254.31,121.98 140.41,0 254.3,-54.6 254.3,-121.98 z"
         id="path370" />
    </clipPath>
    <linearGradient
       x1="0"
       y1="0"
       x2="1"
       y2="0"
       gradientUnits="userSpaceOnUse"
       gradientTransform="matrix(-498.26,51.5438,51.5438,498.26,6524.04,5255.71)"
       spreadMethod="pad"
       id="linearGradient378">
      <stop
         style="stop-opacity:1;stop-color:#c7dbfb"
         offset="0"
         id="stop374" />
      <stop
         style="stop-opacity:1;stop-color:#ffffff"
         offset="1"
         id="stop376" />
    </linearGradient>
    <clipPath
       clipPathUnits="userSpaceOnUse"
       id="clipPath394">
      <path
         d="m 10928,8749.09 -2.8,-978.54 v -6.74 c -0.1,-35.44 -9.4,-63.04 -25.3,-81.36 -27.3,-31.7 -74,-36.04 -127.1,-5.42 l -857.38,495.11 c -83.76,48.33 -151.49,165.6 -151.26,261.9 l 2.77,985.28 c 0.13,36.52 9.89,64.72 26.76,83.04 4.34,4.71 9.16,8.8 14.35,12.18 3.86,2.64 7.95,4.82 12.41,6.5 4.94,2.05 10.13,3.62 15.66,4.46 h 0.13 c 23.86,4.22 52.42,-1.8 82.92,-19.4 l 13.14,-7.6 844.4,-487.39 c 83.8,-48.46 151.5,-165.72 151.3,-262.02 z"
         id="path392" />
    </clipPath>
    <linearGradient
       x1="0"
       y1="0"
       x2="1"
       y2="0"
       gradientUnits="userSpaceOnUse"
       gradientTransform="matrix(1116.94,446.775,446.775,-1116.94,9539.77,8269.01)"
       spreadMethod="pad"
       id="linearGradient400">
      <stop
         style="stop-opacity:1;stop-color:#3b68fa"
         offset="0"
         id="stop396" />
      <stop
         style="stop-opacity:1;stop-color:#152c9d"
         offset="1"
         id="stop398" />
    </linearGradient>
    <clipPath
       clipPathUnits="userSpaceOnUse"
       id="clipPath410">
      <path
         d="m 11093.3,8835.02 -2.8,-985.29 c -0.1,-58.93 -25.8,-96.41 -64.8,-105.33 l -0.4,-0.13 -125.4,-61.82 c 15.9,18.32 25.2,45.92 25.3,81.36 v 6.74 l 2.8,978.54 c 0.2,96.3 -67.5,213.56 -151.3,262.02 l -844.4,487.39 -13.14,7.6 c -30.5,17.6 -59.06,23.62 -82.92,19.4 l 135.47,73.76 c 0,0.12 0.12,0.12 0.12,0.12 l 12.65,6.88 c 26.72,11.8 61.82,7.83 100.12,-14.22 l 857.5,-495.12 c 83.7,-48.33 151.4,-165.6 151.2,-261.9 z"
         id="path408" />
    </clipPath>
    <linearGradient
       x1="0"
       y1="0"
       x2="1"
       y2="0"
       gradientUnits="userSpaceOnUse"
       gradientTransform="matrix(-1220.04,902.142,902.142,1220.04,10901.5,8404.96)"
       spreadMethod="pad"
       id="linearGradient416">
      <stop
         style="stop-opacity:1;stop-color:#c7dbfb"
         offset="0"
         id="stop412" />
      <stop
         style="stop-opacity:1;stop-color:#ffffff"
         offset="1"
         id="stop414" />
    </linearGradient>
    <clipPath
       clipPathUnits="userSpaceOnUse"
       id="clipPath430">
      <path
         d="m 8008.18,10744.1 -2.77,-978.52 v -6.75 c -0.12,-35.42 -9.39,-63.03 -25.31,-81.35 -27.24,-31.69 -74,-36.04 -127.03,-5.42 l -857.41,495.14 c -83.76,48.3 -151.5,165.6 -151.26,261.9 l 2.78,985.3 c 0.12,36.5 9.88,64.7 26.76,83 4.33,4.7 9.15,8.8 14.33,12.2 3.86,2.6 7.96,4.8 12.41,6.5 4.96,2 10.13,3.6 15.68,4.4 h 0.12 c 23.86,4.3 52.43,-1.8 82.92,-19.4 l 13.13,-7.6 844.39,-487.4 c 83.77,-48.4 151.51,-165.7 151.26,-262 z"
         id="path428" />
    </clipPath>
    <linearGradient
       x1="0"
       y1="0"
       x2="1"
       y2="0"
       gradientUnits="userSpaceOnUse"
       gradientTransform="matrix(1159.9,-1563.71,-1563.71,-1159.9,6827.03,11394.5)"
       spreadMethod="pad"
       id="linearGradient436">
      <stop
         style="stop-opacity:1;stop-color:#c7dbfb"
         offset="0"
         id="stop432" />
      <stop
         style="stop-opacity:1;stop-color:#ffffff"
         offset="1"
         id="stop434" />
    </linearGradient>
    <clipPath
       clipPathUnits="userSpaceOnUse"
       id="clipPath446">
      <path
         d="m 8173.55,10830.1 -2.78,-985.33 c -0.12,-58.93 -25.79,-96.42 -64.84,-105.34 l -0.36,-0.12 -125.47,-61.83 c 15.92,18.32 25.19,45.93 25.31,81.35 v 6.75 l 2.77,978.52 c 0.25,96.3 -67.49,213.6 -151.26,262 l -844.39,487.4 -13.13,7.6 c -30.49,17.6 -59.06,23.7 -82.92,19.4 l 135.46,73.8 c 0,0.1 0.13,0.1 0.13,0.1 l 12.66,6.9 c 26.75,11.8 61.82,7.8 100.14,-14.2 l 857.42,-495.1 c 83.77,-48.4 151.5,-165.6 151.26,-261.9 z"
         id="path444" />
    </clipPath>
    <linearGradient
       x1="0"
       y1="0"
       x2="1"
       y2="0"
       gradientUnits="userSpaceOnUse"
       gradientTransform="matrix(-1220.04,902.142,902.142,1220.04,7981.71,10400)"
       spreadMethod="pad"
       id="linearGradient452">
      <stop
         style="stop-opacity:1;stop-color:#c7dbfb"
         offset="0"
         id="stop448" />
      <stop
         style="stop-opacity:1;stop-color:#ffffff"
         offset="1"
         id="stop450" />
    </linearGradient>
    <clipPath
       clipPathUnits="userSpaceOnUse"
       id="clipPath472">
      <path
         d="m 8512.82,6592.78 c 0,-6.99 -2.17,-13.74 -6.27,-20.13 -17.84,-27.97 -71.95,-48.33 -135.83,-48.33 -63.99,0 -118.11,20.36 -135.95,48.33 -4.1,6.39 -6.26,13.14 -6.26,20.13 0,37.84 63.63,68.46 142.21,68.46 78.46,0 142.1,-30.62 142.1,-68.46 z"
         id="path470" />
    </clipPath>
    <linearGradient
       x1="0"
       y1="0"
       x2="1"
       y2="0"
       gradientUnits="userSpaceOnUse"
       gradientTransform="matrix(176.133,-128.878,-128.878,-176.133,8303.81,6641.72)"
       spreadMethod="pad"
       id="linearGradient478">
      <stop
         style="stop-opacity:1;stop-color:#c7dbfb"
         offset="0"
         id="stop474" />
      <stop
         style="stop-opacity:1;stop-color:#ffffff"
         offset="1"
         id="stop476" />
    </linearGradient>
    <clipPath
       clipPathUnits="userSpaceOnUse"
       id="clipPath490">
      <path
         d="m 8512.82,6592.78 v -40.14 c 0,-37.84 -63.64,-68.45 -142.1,-68.45 -78.58,0 -142.21,30.61 -142.21,68.45 v 40.14 c 0,-6.99 2.16,-13.74 6.26,-20.13 17.84,-27.97 71.96,-48.33 135.95,-48.33 63.88,0 117.99,20.36 135.83,48.33 4.1,6.39 6.27,13.14 6.27,20.13 z"
         id="path488" />
    </clipPath>
    <linearGradient
       x1="0"
       y1="0"
       x2="1"
       y2="0"
       gradientUnits="userSpaceOnUse"
       gradientTransform="matrix(-309.306,64.4388,64.4388,309.306,8413.33,6541.33)"
       spreadMethod="pad"
       id="linearGradient496">
      <stop
         style="stop-opacity:1;stop-color:#c7dbfb"
         offset="0"
         id="stop492" />
      <stop
         style="stop-opacity:1;stop-color:#ffffff"
         offset="1"
         id="stop494" />
    </linearGradient>
  </defs>
  <sodipodi:namedview
     id="namedview4"
     pagecolor="#ffffff"
     bordercolor="#000000"
     borderopacity="0.25"
     inkscape:showpageshadow="2"
     inkscape:pageopacity="0.0"
     inkscape:pagecheckerboard="0"
     inkscape:deskcolor="#d1d1d1" />
  <g
     id="g8"
     inkscape:groupmode="layer"
     inkscape:label="ink_ext_XXXXXX"
     transform="matrix(1.3333333,0,0,-1.3333333,0,1547.7067)">
    <g
       id="g10"
       transform="scale(0.1)">
      <path
         d="m 2918.09,9005.6 c 0,805.81 -653.24,1459.1 -1459.05,1459.1 C 653.234,10464.7 0,9811.41 0,9005.6 0,8199.8 653.234,7546.56 1459.04,7546.56 c 805.81,0 1459.05,653.24 1459.05,1459.04"
         style="fill:#3b68fa;fill-opacity:1;fill-rule:nonzero;stroke:none"
         id="path12" />
      <path
         d="m 2174.49,2892.36 c 0,261.88 -212.29,474.19 -474.18,474.19 -261.88,0 -474.19,-212.31 -474.19,-474.19 0,-261.88 212.31,-474.18 474.19,-474.18 261.89,0 474.18,212.3 474.18,474.18"
         style="fill:#ffaa2f;fill-opacity:1;fill-rule:nonzero;stroke:none"
         id="path14" />
      <g
         id="g16">
        <g
           id="g18"
           clip-path="url(#clipPath22)">
          <path
             d="M 2950.55,8549.94 C 2254.4,8507.32 1543.72,8267.71 1069.04,7756.71 594.355,7245.71 415.402,6431.73 761.906,5826.43 1241.16,4989.23 2502.38,4781.03 2841.8,3878.04 c 188.9,-502.58 31.22,-1103.83 294.53,-1571.75 188.09,-334.25 559.16,-529.15 933.15,-614.17 374.01,-85.02 761.84,-77.93 1143.97,-110.82 C 6147.1,1501 7041.95,1182.7 7919.89,855 8797.84,527.402 9680.49,185.102 10608.3,53.3008 c 927.8,-131.6992 1920.9,-34.6016 2713.6,465.1012 792.7,499.698 1332.4,1457.448 1162.2,2378.938 -133.7,723.22 -708.9,1345.98 -1419.3,1536.47 -524.8,140.73 -1176.9,104.58 -1488.7,549.51 -132.9,189.62 -168.4,429.23 -262.3,640.89 -267.7,603.37 -949.1,887.06 -1568.57,1115 -1226.25,451.19 -2452.5,902.39 -3678.75,1353.58 -977.39,359.62 -2076.07,457.15 -3115.93,457.15"
             style="fill:url(#linearGradient28);fill-opacity:1;fill-rule:nonzero;stroke:none"
             id="path30" />
        </g>
      </g>
      <path
         d="m 4496.76,10088 c 4.86,-15.1 10.24,-30.2 15.73,-45.1 36.14,-97.21 78.91,-193.3 142.38,-275.31 30.76,-39.76 66.9,-76.11 107.39,-106.03 24.84,-18.22 51.35,-34.17 79.21,-46.81 20.49,-9.31 41.72,-16.87 63.68,-22.47 15.43,-3.93 31.27,-6.73 47.21,-8.39 22.38,-2.48 45.05,-2.58 67.42,-0.41 65.44,6.01 128.5,31.38 175.3,77.04 30.55,29.83 52.7,65.96 70.11,105 19.46,43.49 33.02,90.61 45.87,136.48 19.66,69.78 39.24,139.6 58.8,209.4 9.43,33.6 18.96,67.3 28.38,100.9 -171.37,3.5 -341.81,46.2 -494.44,124.1 -51.47,26.3 -108.72,-11.9 -145.59,-56.4 -18.33,-22.3 -30.86,-56.1 -40.69,-91.3 -8.5,-30.6 -46.18,-41.3 -70.2,-20.5 -8.29,7.1 -17.09,11.9 -25.79,12.9 -32.3,3.4 -65.75,-16.4 -78.49,-46.3 -7.14,-17.1 -8.69,-37.6 -30.55,-45.1 -5.07,-1.6 -10.46,-2.2 -15.73,-1.7"
         style="fill:#94acd8;fill-opacity:1;fill-rule:nonzero;stroke:none"
         id="path32" />
      <path
         d="m 4247.62,9792.65 c 23.71,-75.38 63.06,-145.08 113.7,-205.44 96.61,-115.14 234.12,-196.53 383.02,-218.69 32.3,82 64.71,164.12 97.13,246.23 -73.31,33.35 -136.9,88.74 -186.6,152.84 -26.92,34.79 -50.11,72.07 -70.61,110.9 -27.96,52.81 -50.95,108.41 -71.77,164.41 -5.49,14.9 -10.87,30 -15.73,45.1 -5.39,0.3 -10.67,1.6 -15.64,4 -13.56,6.4 -22.98,17.1 -30.24,29.5 -19.67,-31.8 -39.35,-63.7 -59.12,-95.5 v -0.1 c -28.48,-46.04 -56.95,-91.91 -85.43,-137.98 -19.46,-31.59 -69.89,-59.86 -58.71,-95.27"
         style="fill:#94acd8;fill-opacity:1;fill-rule:nonzero;stroke:none"
         id="path34" />
      <path
         d="m 4962.05,7736.19 c 0.13,-78.58 -3.61,-156.93 -13.25,-235.02 -111.85,-136.8 -312.52,-261.78 -498.85,-325.54 -26.76,-9.16 -53.27,-16.99 -79.06,-23.38 -16.64,-4.33 -33.14,-7.83 -49.18,-10.85 -12.41,-2.28 -24.71,-4.22 -37.12,-6.02 -19.76,-2.89 -39.77,-4.94 -59.66,-6.51 -72.31,-5.43 -145.35,-2.29 -217.18,9.04 2.29,14.34 7.35,27.97 16.63,39.89 16.99,21.94 52.18,25.79 87.5,25.92 23.14,0.11 34.11,28.92 17,44.47 -93.29,83.76 -212.61,161.14 -323.37,208.26 0.12,0.13 0.23,0.25 0.48,0.36 -111.49,357.24 -133.55,762.68 -63.76,1130.29 40.86,216.22 112.81,425.92 143.18,643.71 4.46,32.66 7.6,66.89 6.27,100.28 -0.24,3.86 -0.48,7.83 -0.72,11.81 -0.25,3.97 -0.72,7.83 -1.09,11.69 -0.36,2.9 -0.72,5.79 -1.08,8.68 -0.48,3.38 -1.08,6.63 -1.69,9.88 -0.6,3.25 -1.2,6.51 -1.92,9.77 -0.73,3.25 -1.58,6.5 -2.42,9.64 -0.85,3.25 -1.8,6.38 -2.77,9.52 -1.56,4.94 -3.37,9.88 -5.3,14.7 -1.94,4.82 -4.1,9.64 -6.51,14.34 -1.09,2.29 -2.29,4.58 -3.74,6.87 -1.32,2.65 -3.01,5.31 -4.7,7.84 -1.32,2.29 -2.89,4.58 -4.46,6.74 -2.05,2.9 -4.21,5.8 -6.51,8.56 -57,69.78 -156.8,76.17 -246.83,51.59 196.69,243.33 493.91,390.98 789.8,513.18 -28.45,-46.03 -56.89,-91.95 -85.46,-137.99 -19.4,-31.58 -69.9,-59.9 -58.69,-95.22 3.25,-10.12 6.63,-20.24 10.49,-30.12 1.8,-4.95 3.73,-9.89 5.78,-14.83 2.05,-4.94 4.1,-9.76 6.27,-14.71 2.17,-4.81 4.33,-9.63 6.63,-14.46 2.04,-4.33 4.22,-8.8 6.5,-13.13 2.53,-5.19 5.19,-10.25 7.96,-15.19 1.68,-3.38 3.5,-6.63 5.42,-9.76 0.12,-0.48 0.49,-0.96 0.72,-1.45 1.33,-2.53 2.78,-4.94 4.35,-7.47 2.4,-4.22 4.94,-8.44 7.59,-12.66 2.89,-4.69 5.91,-9.39 9.04,-14.1 0.24,-0.24 0.36,-0.59 0.6,-0.84 0.48,-0.85 1.08,-1.69 1.69,-2.41 3.61,-5.78 7.59,-11.33 11.57,-16.88 5.3,-7.35 10.72,-14.58 16.27,-21.57 4.22,-5.43 8.44,-10.73 12.9,-15.91 3.97,-4.69 7.95,-9.4 12.05,-13.98 0.24,-0.36 0.6,-0.6 0.97,-0.97 3.84,-4.33 7.83,-8.67 11.8,-12.89 4.34,-4.58 8.8,-9.16 13.26,-13.62 3.26,-3.37 6.63,-6.75 10.12,-9.88 4.71,-4.58 9.52,-9.04 14.46,-13.5 2.05,-1.92 4.22,-3.74 6.27,-5.55 3.5,-3.13 7.11,-6.26 10.73,-9.16 0.85,-0.72 1.69,-1.44 2.54,-2.16 6.14,-5.18 12.41,-10.13 18.79,-15.06 7.59,-5.91 15.43,-11.58 23.38,-17.12 10.49,-7.36 21.34,-14.47 32.31,-21.21 3.74,-2.42 7.59,-4.7 11.57,-7 3.86,-2.28 7.71,-4.46 11.69,-6.63 7.83,-4.45 15.79,-8.67 23.86,-12.65 8.07,-3.98 16.15,-7.83 24.34,-11.57 4.1,-1.81 8.21,-3.62 12.42,-5.43 4.1,-1.68 8.32,-3.36 12.42,-5.05 3.61,-1.45 7.11,-2.89 10.72,-4.22 4.82,-1.81 9.65,-3.5 14.58,-5.19 4.23,-1.44 8.45,-2.89 12.78,-4.33 8.56,-2.66 17.24,-5.31 25.91,-7.6 4.35,-1.2 8.68,-2.29 13.02,-3.37 17.48,-4.35 35.19,-7.83 53.04,-10.49 32.29,81.95 64.71,164.03 97.02,246.23 20.6,-9.4 41.81,-16.87 63.75,-22.54 15.43,-3.85 31.22,-6.75 47.24,-8.31 7.47,-167.65 0.84,-335.91 -19.64,-502.34 -3.74,-30.38 -7.84,-60.75 -12.53,-90.88 -10.97,-71.35 -24.47,-142.34 -36.04,-213.58 -1.33,-8.19 -2.66,-16.26 -3.86,-24.46 -1.21,-7.22 -2.29,-14.34 -3.25,-21.57 -1.08,-7.24 -2.18,-14.59 -3.13,-21.82 -1.09,-7.23 -2.05,-14.46 -2.89,-21.69 -0.85,-6.02 -1.58,-12.06 -2.18,-18.08 -1.09,-8.44 -2.04,-16.99 -2.89,-25.43 -0.61,-5.91 -1.09,-11.81 -1.69,-17.72 -29.05,-316.49 97.15,-572.97 97.74,-890.19"
         style="fill:#ffaa2f;fill-opacity:1;fill-rule:nonzero;stroke:none"
         id="path36" />
      <path
         d="m 3742.23,8587.1 c -69.79,-367.61 -47.73,-773.05 63.76,-1130.29 -0.25,-0.11 -0.36,-0.23 -0.48,-0.36 -4.83,-3.37 -9.77,-6.62 -14.83,-9.88 -1.44,-0.97 -2.89,-1.92 -4.46,-2.89 -0.97,-0.61 -1.92,-1.2 -3.01,-1.81 -0.48,-0.36 -0.96,-0.72 -1.57,-0.97 -0.12,-0.11 -0.36,-0.23 -0.48,-0.36 0,-0.11 0,-0.11 -0.11,0 -3.02,-1.92 -6.16,-3.85 -9.29,-5.66 -5.06,-3.01 -10.13,-5.91 -15.19,-8.8 -4.22,-2.28 -8.55,-4.7 -12.89,-6.86 -3.98,-2.06 -7.96,-4.11 -11.93,-6.03 -3.5,-1.69 -6.99,-3.5 -10.62,-5.07 -5.89,-2.77 -11.8,-5.42 -17.71,-7.95 -2.29,-1.08 -4.57,-2.05 -6.87,-3.02 -5.79,-2.41 -11.57,-4.81 -17.35,-6.99 -0.97,-0.48 -2.05,-0.84 -3.02,-1.2 -5.42,-2.05 -10.96,-4.1 -16.51,-5.91 -10.36,-3.61 -20.72,-6.86 -31.21,-9.88 -5.3,-1.56 -10.49,-3.01 -15.79,-4.34 -4.22,-1.2 -8.56,-2.16 -12.78,-3.25 -1.8,-0.36 -3.61,-0.85 -5.54,-1.21 -4.46,-1.08 -8.92,-2.05 -13.5,-2.89 -4.94,-1.08 -10,-2.05 -15.07,-2.89 -4.94,-0.85 -9.75,-1.69 -14.7,-2.41 -6.02,-0.97 -12.06,-1.69 -18.08,-2.41 -3.25,-0.24 -6.63,-0.73 -9.76,-0.97 -16.39,-1.56 -32.55,-2.29 -48.45,-2.17 -3.98,65.69 -14.34,130.17 -28.44,194.17 -39.66,180.78 -108.6,356.75 -144.99,538.86 -67.5,336.63 -21.58,689.16 87.5,1014.7 22.53,67.25 47.84,133.78 78.21,197.65 20.86,44.11 44.11,87.02 70.64,128 18.79,29.04 38.79,56.77 60.02,83.28 1.31,1.81 2.76,3.62 4.21,5.43 5.42,1.45 10.97,2.89 16.51,4.09 3.02,0.73 6.02,1.33 9.04,1.94 4.83,0.96 9.64,1.8 14.46,2.64 1.09,0.25 2.17,0.36 3.26,0.49 4.82,0.72 9.64,1.32 14.46,1.93 0.49,0 0.97,0.11 1.44,0.11 5.43,0.61 10.74,0.97 16.16,1.33 0.48,0.12 0.96,0.12 1.32,0 5.31,0.36 10.61,0.49 15.8,0.49 52.42,0 102.32,-13.99 139.32,-48.58 2.65,-2.41 5.3,-4.94 7.71,-7.71 2.54,-2.66 4.95,-5.42 7.35,-8.32 2.3,-2.76 4.46,-5.66 6.51,-8.56 1.57,-2.16 3.14,-4.45 4.46,-6.74 1.69,-2.53 3.38,-5.19 4.7,-7.84 1.33,-2.29 2.53,-4.58 3.74,-6.87 2.41,-4.7 4.57,-9.52 6.51,-14.34 1.93,-4.82 3.74,-9.76 5.3,-14.7 0.97,-3.14 1.92,-6.27 2.77,-9.52 0.84,-3.14 1.69,-6.39 2.42,-9.64 0.72,-3.26 1.32,-6.52 1.92,-9.77 0.61,-3.25 1.21,-6.5 1.69,-9.88 0.36,-2.89 0.72,-5.78 1.08,-8.68 0.37,-3.86 0.84,-7.72 1.09,-11.69 0.24,-3.98 0.48,-7.95 0.72,-11.81 1.33,-33.39 -1.81,-67.62 -6.27,-100.28 -30.37,-217.79 -102.32,-427.49 -143.18,-643.71"
         style="fill:#bf8024;fill-opacity:1;fill-rule:nonzero;stroke:none"
         id="path38" />
      <path
         d="m 4864.35,8626.39 c 27.96,-29.92 59.85,-56.01 95.68,-76.21 94.12,-53.02 219.32,-58.82 306.71,4.77 119.29,86.87 129.12,258.87 120.32,406.21 -16.15,270.99 -56.95,540.62 -121.87,804.36 -17.41,-39.04 -39.56,-75.17 -70.11,-105 -5.69,-5.59 -11.7,-10.77 -17.81,-15.63 -44.42,-35.94 -100.02,-56.12 -157.49,-61.41 12.62,-129.12 25.16,-258.45 37.79,-387.57 4.45,-44.84 4.14,-99.61 -34.38,-122.92 -27.54,-16.57 -61.71,-8.28 -90.4,8.6 -3.73,-30.34 -7.87,-60.68 -12.53,-90.92 -10.97,-71.34 -24.54,-142.27 -36.03,-213.52 -7.25,-44.2 -13.67,-88.42 -18.22,-133.05 -0.63,-5.9 -1.15,-11.81 -1.66,-17.71"
         style="fill:#ffaa2f;fill-opacity:1;fill-rule:nonzero;stroke:none"
         id="path40" />
      <path
         d="m 4111.88,7203.72 c -35.32,-0.13 -70.51,-3.98 -87.5,-25.92 -9.28,-11.92 -14.34,-25.55 -16.63,-39.89 -4.95,-30.62 3.74,-64.96 16.87,-94.13 20.24,-45.07 49.53,-86.42 62.68,-133.9 9.27,-33.27 7.95,-72.08 -7.48,-101.73 -6.75,-12.66 -16.15,-23.86 -28.56,-32.06 -23.51,-15.66 -53.15,-17.95 -81.36,-17.35 -171.74,3.98 -336.27,116.06 -403.15,274.31 -33.75,80.15 -43.27,166.93 -44.11,254.55 0,0.12 0,0.12 0,0.12 3.13,22.18 6.63,44.11 10.36,66.05 6.02,0.72 12.06,1.44 18.08,2.41 4.95,0.72 9.76,1.56 14.7,2.41 5.07,0.84 10.13,1.81 15.07,2.89 4.58,0.84 9.04,1.81 13.5,2.89 1.93,0.36 3.74,0.85 5.54,1.21 4.22,1.09 8.56,2.05 12.78,3.25 5.3,1.33 10.49,2.78 15.79,4.34 10.49,3.02 20.85,6.27 31.21,9.88 5.55,1.94 11.09,3.99 16.51,6.03 1.09,0.36 2.05,0.72 3.02,1.08 6.14,2.41 12.17,4.83 18.19,7.36 8.08,3.25 15.91,6.87 23.74,10.6 3.63,1.57 7.12,3.38 10.62,5.07 3.97,1.92 7.95,3.97 11.93,6.03 4.34,2.16 8.67,4.58 12.89,6.86 5.06,2.89 10.13,5.79 15.19,8.8 3.13,1.81 6.27,3.74 9.29,5.66 0.23,0 0.47,0.25 0.71,0.48 3.02,1.69 6.03,3.5 8.92,5.55 5.06,3.26 10,6.51 14.83,9.88 110.76,-47.12 230.08,-124.5 323.37,-208.26 17.11,-15.55 6.14,-44.36 -17,-44.47"
         style="fill:#94acd8;fill-opacity:1;fill-rule:nonzero;stroke:none"
         id="path42" />
      <path
         d="m 4665.74,10584 c 41.32,-51.7 80.05,-111.4 79.22,-177.6 -0.42,-28.8 -8.39,-57 -17.61,-84.3 -18.63,-55.4 -42.76,-108.8 -71.85,-159.5 23.6,-12.7 54.46,-1.2 62.02,26.1 9.83,35.2 22.36,69 40.69,91.3 36.87,44.5 94.12,82.7 145.59,56.4 152.63,-77.9 323.07,-120.6 494.44,-124.1 7.45,-0.1 14.81,-0.2 22.26,-0.2 75.08,-0.1 164.65,16.7 187.64,93.4 -109.15,-21.7 -221.29,-30.1 -329.6,-7.2 -66.48,14 -129.85,39.4 -192.91,64.7 -52.29,20.9 -104.58,41.9 -156.77,63.2 -36.87,15 -74.45,30.6 -103.96,57.1 -32.72,29.3 -53.01,69.6 -75.07,107.6 -39.56,68 -89.88,133.7 -151.91,180.6 -20.92,-16.3 -40.69,-33.8 -58.92,-52.2 45.56,-41.7 88.02,-87.1 126.74,-135.3"
         style="fill:#152c9d;fill-opacity:1;fill-rule:nonzero;stroke:none"
         id="path44" />
      <path
         d="m 4749.83,10590.9 c 22.06,-38 42.35,-78.3 75.07,-107.6 29.51,-26.5 67.09,-42.1 103.96,-57.1 52.19,-21.3 104.48,-42.3 156.77,-63.2 63.06,-25.3 126.43,-50.7 192.91,-64.7 108.31,-22.9 220.45,-14.5 329.6,7.2 2.48,8.2 4.14,17 4.96,26.6 2.8,31.8 -5.79,63.6 -21.85,91.4 -77.25,134.2 -180.59,253.2 -302.35,348.9 -133.58,105.1 -312.62,183.5 -471.46,122.8 -73.2,-27.9 -151.9,-70.2 -219.52,-123.7 62.03,-46.9 112.35,-112.6 151.91,-180.6"
         style="fill:#2743b9;fill-opacity:1;fill-rule:nonzero;stroke:none"
         id="path46" />
      <path
         d="m 4438.57,10147.6 c 3.51,-8.9 7.45,-17.9 12.31,-26.1 7.26,-12.4 16.68,-23.1 30.24,-29.5 4.97,-2.4 10.25,-3.7 15.64,-4 5.27,-0.5 10.66,0.1 15.73,1.7 21.86,7.5 23.41,28 30.55,45.1 12.74,29.9 46.19,49.7 78.49,46.3 8.7,-1 17.5,-5.8 25.79,-12.9 2.58,-2.3 5.38,-4.1 8.18,-5.6 29.09,50.7 53.22,104.1 71.85,159.5 9.22,27.3 17.19,55.5 17.61,84.3 0.83,66.2 -37.9,125.9 -79.22,177.6 -38.72,48.2 -81.18,93.6 -126.74,135.3 -38.21,-38.3 -69.68,-80.8 -90.4,-126.4 -63.05,-139 -66.78,-303.6 -10.03,-445.3"
         style="fill:#2743b9;fill-opacity:1;fill-rule:nonzero;stroke:none"
         id="path48" />
      <path
         d="m 4496.76,10088 c 4.86,-15.1 10.24,-30.2 15.73,-45.1 36.14,-97.21 78.91,-193.3 142.38,-275.31 30.76,-39.76 66.9,-76.11 107.39,-106.03 -11.81,32.3 -23.72,64.61 -35.63,96.92 -17.81,48.15 -35.62,101.68 -16.87,149.52 7.65,19.47 20.91,36.34 27.85,56.13 7.24,20.5 7.24,42.77 9.94,64.37 8.49,69.8 45.98,135.7 101.68,178.7 70.42,-35 145.49,-60.6 222.42,-76.6 80.67,-16.6 191.77,-28.4 298.21,-19.2 9.43,33.6 18.96,67.3 28.38,100.9 -171.37,3.5 -341.81,46.2 -494.44,124.1 -51.47,26.3 -108.72,-11.9 -145.59,-56.4 -18.33,-22.3 -30.86,-56.1 -40.69,-91.3 -8.5,-30.6 -46.18,-41.3 -70.2,-20.5 -8.29,7.1 -17.09,11.9 -25.79,12.9 -32.3,3.4 -65.75,-16.4 -78.49,-46.3 -7.14,-17.1 -8.69,-37.6 -30.55,-45.1 -5.07,-1.6 -10.46,-2.2 -15.73,-1.7"
         style="fill:#5b81bf;fill-opacity:1;fill-rule:nonzero;stroke:none"
         id="path50" />
      <path
         d="m 4247.62,9792.65 c 23.71,-75.38 63.06,-145.08 113.7,-205.44 0.52,1.04 1.03,2.18 1.44,3.22 48.68,113.58 125.92,210.61 221.5,288.06 -27.96,52.81 -50.95,108.41 -71.77,164.41 -5.49,14.9 -10.87,30 -15.73,45.1 -5.39,0.3 -10.67,1.6 -15.64,4 -13.56,6.4 -22.98,17.1 -30.24,29.5 -19.67,-31.8 -39.35,-63.7 -59.12,-95.5 v -0.1 c -28.48,-46.04 -56.95,-91.91 -85.43,-137.98 -19.46,-31.59 -69.89,-59.86 -58.71,-95.27"
         style="fill:#5b81bf;fill-opacity:1;fill-rule:nonzero;stroke:none"
         id="path52" />
      <path
         d="m 4962.05,7736.19 c 0.13,-78.58 -3.61,-156.93 -13.25,-235.02 -111.85,-136.8 -312.52,-261.78 -498.85,-325.54 -26.76,-9.16 -53.27,-16.99 -79.06,-23.38 -16.64,-4.33 -33.14,-7.83 -49.18,-10.85 -12.41,-2.28 -24.71,-4.22 -37.12,-6.02 -19.76,-2.89 -39.77,-4.94 -59.66,-6.51 -72.31,-5.43 -145.35,-2.29 -217.18,9.04 2.29,14.34 7.35,27.97 16.63,39.89 16.99,21.94 52.18,25.79 87.5,25.92 23.14,0.11 34.11,28.92 17,44.47 -93.29,83.76 -212.61,161.14 -323.37,208.26 0.12,0.13 0.23,0.25 0.48,0.36 -111.49,357.24 -133.55,762.68 -63.76,1130.29 40.86,216.22 112.81,425.92 143.18,643.71 4.46,32.66 7.6,66.89 6.27,100.28 -0.24,3.86 -0.48,7.83 -0.72,11.81 -0.25,3.97 -0.72,7.83 -1.09,11.69 -0.36,2.9 -0.72,5.79 -1.08,8.68 -0.48,3.38 -1.08,6.63 -1.69,9.88 -0.6,3.25 -1.2,6.51 -1.92,9.77 -0.73,3.25 -1.58,6.5 -2.42,9.64 -0.85,3.25 -1.8,6.38 -2.77,9.52 -1.56,4.94 -3.37,9.88 -5.3,14.7 -1.94,4.82 -4.1,9.64 -6.51,14.34 -1.09,2.29 -2.29,4.58 -3.74,6.87 -1.32,2.65 -3.01,5.31 -4.7,7.84 -1.32,2.29 -2.89,4.58 -4.46,6.74 -2.05,2.9 -4.21,5.8 -6.51,8.56 -57,69.78 -156.8,76.17 -246.83,51.59 196.69,243.33 493.91,390.98 789.8,513.18 -28.45,-46.03 -56.89,-91.95 -85.46,-137.99 -19.4,-31.58 -69.9,-59.9 -58.69,-95.22 3.25,-10.12 6.63,-20.24 10.49,-30.12 1.8,-4.95 3.73,-9.89 5.78,-14.83 2.05,-4.94 4.1,-9.76 6.27,-14.71 2.17,-4.81 4.33,-9.63 6.63,-14.46 2.04,-4.33 4.22,-8.8 6.5,-13.13 2.53,-5.19 5.19,-10.25 7.96,-15.19 1.68,-3.38 3.5,-6.63 5.42,-9.76 0.12,-0.48 0.49,-0.96 0.72,-1.45 1.33,-2.53 2.78,-4.94 4.35,-7.47 2.4,-4.22 4.94,-8.44 7.59,-12.66 2.89,-4.69 5.91,-9.39 9.04,-14.1 0.24,-0.24 0.36,-0.59 0.6,-0.84 0.48,-0.85 1.08,-1.69 1.69,-2.41 3.61,-5.78 7.59,-11.33 11.57,-16.88 5.3,-7.35 10.72,-14.58 16.27,-21.57 4.22,-5.43 8.44,-10.73 12.9,-15.91 3.97,-4.69 7.95,-9.4 12.05,-13.98 -4.35,-4.45 -8.8,-8.8 -13.38,-13.02 -65.32,-61.22 -144.51,-107.87 -201.4,-176.92 -124.5,-151.51 -113.29,-368.21 -149.32,-560.92 -27.25,-145.6 -84.13,-283.72 -118.36,-427.86 -34.23,-144.03 -44,-301.68 20.49,-434.98 73.39,-151.86 233.09,-247.32 397.73,-284.68 116.43,-26.51 236.59,-27.71 355.3,-22.05 70.63,3.25 224.54,60.99 297.57,83.4"
         style="fill:#bf8024;fill-opacity:1;fill-rule:nonzero;stroke:none"
         id="path54" />
      <path
         d="m 3612.46,7619.6 c 8.6,-73.72 22.05,-162.98 63.68,-230.6 46.39,17.6 90.5,40.49 129.33,67.41 0.21,0.21 0.31,0.31 0.52,0.41 -111.52,357.24 -133.58,762.63 -63.78,1130.33 40.9,216.1 112.86,425.89 143.2,643.65 9.63,69.9 13.05,147.35 -20.92,207.19 -56.12,-0.72 -115.14,-27.85 -153.25,-70.72 -63.68,-71.65 -83.35,-171.36 -97.33,-266.22 -72.17,-489.98 -58.82,-989.49 -1.45,-1481.45"
         style="fill:#ffaa2f;fill-opacity:1;fill-rule:nonzero;stroke:none"
         id="path56" />
      <path
         d="m 4079.82,6808.15 c -6.75,-12.66 -16.15,-23.86 -28.56,-32.06 -23.51,-15.66 -53.15,-17.95 -81.36,-17.35 -171.74,3.98 -336.27,116.06 -403.15,274.31 -33.75,80.15 -43.27,166.93 -44.11,254.55 0,0.12 0,0.12 0,0.12 3.13,22.18 6.63,44.11 10.36,66.05 6.02,0.72 12.06,1.44 18.08,2.41 4.95,0.72 9.76,1.56 14.7,2.41 5.07,0.84 10.13,1.81 15.07,2.89 4.58,0.84 9.04,1.81 13.5,2.89 1.93,0.36 3.74,0.85 5.54,1.21 4.22,1.09 8.56,2.05 12.78,3.25 5.3,1.33 10.49,2.78 15.79,4.34 10.49,3.02 20.85,6.27 31.21,9.88 5.55,-23.62 10.49,-47.6 17.48,-70.87 64.73,-214.41 279.74,-328.18 402.67,-504.03"
         style="fill:#6389c5;fill-opacity:1;fill-rule:nonzero;stroke:none"
         id="path58" />
      <path
         d="m 4884.23,8777.15 c 31.48,-22.56 64.62,-43.28 102.3,-50.42 70.21,-13.35 143,24.85 186.7,81.39 43.69,56.53 62.65,128.5 71.87,199.33 26.3,202.85 -18.02,407.46 -62.03,607.21 -2.18,9.94 -4.04,20.08 -5.8,30.23 -44.42,-35.94 -100.02,-56.12 -157.49,-61.41 12.62,-129.12 25.16,-258.45 37.79,-387.57 4.45,-44.84 4.14,-99.61 -34.38,-122.92 -27.54,-16.57 -61.71,-8.28 -90.4,8.6 -3.73,-30.34 -7.87,-60.68 -12.53,-90.92 -10.97,-71.34 -24.54,-142.27 -36.03,-213.52"
         style="fill:#bf8024;fill-opacity:1;fill-rule:nonzero;stroke:none"
         id="path60" />
      <path
         d="m 6158.5,5508.42 c -66.29,-319.63 -194.28,-622.62 -321.56,-923.09 -7.83,-4.58 -16.02,-8.93 -24.34,-12.66 -98.23,-45.44 -227.31,-37.36 -338.08,4.94 -54.71,20.97 -104.97,50.26 -144.74,85.7 57.6,509.57 108.59,1042.65 166.08,1552.22 -213.69,94.62 -414.24,217.8 -596,364.71 -49.41,117.64 -119.07,227.32 -198.74,327.23 -76.41,95.93 -162.11,183.68 -251.17,268.16 94.25,32.31 192.12,80.15 280.33,137.28 86.3,55.92 163.2,120.77 218.52,188.26 243.21,-118.12 452.21,-240.81 670.35,-398.94 216.83,-157.04 383.88,-382.3 484.27,-630.46 122.33,-302.63 121.25,-643.83 55.08,-963.35"
         style="fill:#dde7fd;fill-opacity:1;fill-rule:nonzero;stroke:none"
         id="path62" />
      <path
         d="m 6200.08,3927.15 c -6.03,-30.74 -21.21,-59.07 -45.8,-78.11 -43.03,-33.38 -103.05,-32.3 -156.92,-24.22 -140.05,20.73 -274.56,77.74 -386.88,163.79 -73.04,55.8 -136.68,123.54 -212.97,174.77 -45.8,30.6 -96.9,56.16 -130.89,99.42 -44.96,57.37 -51.71,137.4 -35.19,208.27 0,0.25 0.12,0.48 0.24,0.72 16.76,70.63 61.58,128.84 98.11,191.52 120.16,-106.91 336.02,-158.62 482.82,-90.64 15.18,-128.11 58.57,-254.67 165.35,-340.11 42.79,-34.23 89.43,-63.65 130.41,-100.04 40.99,-36.4 76.89,-81.36 90.04,-134.51 5.65,-22.9 6.26,-47.6 1.68,-70.86"
         style="fill:#b6cfff;fill-opacity:1;fill-rule:nonzero;stroke:none"
         id="path64" />
      <path
         d="m 4963.74,5877.34 c -57.72,-657.69 -90.87,-1323.83 -148.36,-1981.42 0,-0.11 0,-0.11 0,-0.11 -0.13,-2.05 -0.36,-4.1 -0.49,-6.15 -35.54,-3.13 -71.59,-3.85 -107.62,-2.65 -5.31,0.12 -10.61,0.24 -15.91,0.6 -2.05,0 -4.09,0.12 -6.27,0.24 -7.83,0.49 -15.55,0.97 -23.26,1.57 -7.83,0.61 -15.67,1.33 -23.5,2.05 -21.82,2.17 -43.51,4.94 -65.2,8.44 -6.15,0.96 -12.17,1.92 -18.08,3.01 -5.43,0.84 -10.73,1.8 -16.15,2.89 -6.63,1.21 -13.14,2.41 -19.65,3.85 -9.03,1.81 -18.08,3.74 -26.99,5.8 -4.47,1.08 -8.93,2.05 -13.38,3.13 -9.52,2.17 -19.05,4.58 -28.45,6.98 -9.4,2.41 -18.8,4.94 -28.08,7.6 -112.57,243.94 -125.95,521.99 -109.19,790.16 16.74,268.16 61.46,535.01 57.73,803.65 -1.45,104.37 -10.98,210.08 -31.83,312.76 -25.9,128.36 -69.42,252.01 -136.67,362.41 -17.59,28.81 -36.75,56.9 -57.73,83.77 -151.38,194.65 -379.89,317.47 -532.83,510.9 -94.13,119.08 -154.04,263.6 -176.82,413.65 -16.86,111 -13.5,225.01 11.34,334.33 14.1,-64 24.46,-128.48 28.44,-194.17 15.9,-0.12 32.06,0.61 48.45,2.17 3.13,0.24 6.51,0.73 9.76,0.97 -3.73,-21.94 -7.23,-43.87 -10.36,-66.05 0,0 0,0 0,-0.12 0.84,-87.62 10.36,-174.4 44.11,-254.55 66.88,-158.25 231.41,-270.33 403.15,-274.31 28.21,-0.6 57.85,1.69 81.36,17.35 1.56,0.97 3.01,2.05 4.45,3.26 0.97,0.6 1.94,1.45 2.89,2.29 1.22,0.85 2.3,1.8 3.26,2.89 0.24,0.12 0.37,0.24 0.6,0.49 7.12,6.74 12.78,14.58 17.36,23.13 15.43,29.65 16.75,68.46 7.48,101.73 -13.15,47.48 -42.44,88.83 -62.68,133.9 -13.13,29.17 -21.82,63.51 -16.87,94.13 71.83,-11.33 144.87,-14.47 217.18,-9.04 19.89,1.57 39.9,3.62 59.66,6.51 12.41,1.8 24.71,3.74 37.12,6.02 16.04,3.02 32.54,6.52 49.18,10.85 25.79,6.39 52.3,14.22 79.06,23.38 89.06,-84.48 174.76,-172.23 251.17,-268.16 79.67,-99.91 149.33,-209.59 198.74,-327.23 27.73,-65.93 49.18,-134.26 62.32,-204.76 30.49,-163.8 16.15,-332.17 1.56,-498.14"
         style="fill:#dde7fd;fill-opacity:1;fill-rule:nonzero;stroke:none"
         id="path66" />
      <path
         d="m 5343.99,3248.95 c -9.88,-14.82 -22.53,-27.35 -37,-37.72 -20.24,-14.47 -44.1,-24.47 -68.33,-30.25 -41.7,-9.88 -85.09,-8.43 -127.88,-4.95 -86.78,7.24 -176.44,24.23 -246.23,76.3 -43.39,32.42 -76.53,76.41 -114.49,115.1 -69.06,70.14 -155.61,122.81 -249.61,151.86 -42.3,13.14 -89.31,23.62 -116.79,58.22 -20.25,25.54 -25.43,59.05 -24.95,92.31 0,9.88 0.61,19.77 1.33,29.41 6.63,80.03 34.35,158.74 62.31,233.94 126.19,-35.67 261.9,-54.83 392.54,-43.51 0.13,2.05 0.36,4.1 0.49,6.15 92.8,-114.74 203.09,-215.38 325.77,-297.22 62.68,-41.93 130.17,-80.26 176.94,-139.44 46.64,-59.18 67.37,-147.16 25.9,-210.2"
         style="fill:#b6cfff;fill-opacity:1;fill-rule:nonzero;stroke:none"
         id="path68" />
      <path
         d="m 5757.75,5987.75 c -59.41,-404.25 -131.12,-806.67 -215.01,-1206.45 -14.7,-70.27 -31.22,-143.31 -68.22,-203.69 -54.71,20.97 -104.97,50.26 -144.74,85.7 57.6,509.57 108.59,1042.65 166.08,1552.22 -213.69,94.62 -414.24,217.8 -596,364.71 -49.41,117.64 -119.07,227.32 -198.74,327.23 -76.41,95.93 -162.11,183.68 -251.17,268.16 94.25,32.31 192.12,80.15 280.33,137.28 14.23,-29.16 30.62,-58.33 49.79,-88.59 120.52,-189.58 285.63,-350.96 479.32,-464.86 180.18,-105.82 400.02,-188.38 482.46,-380.25 52.18,-121.73 35.19,-260.57 15.9,-391.46"
         style="fill:#c6d9fc;fill-opacity:1;fill-rule:nonzero;stroke:none"
         id="path70" />
      <path
         d="m 4554.2,5169.63 c -67.49,-389.54 -168.25,-787.39 -89.67,-1174.75 5.06,-24.71 10.61,-50.5 14.35,-76.29 -9.52,2.17 -19.05,4.58 -28.45,6.98 -9.4,2.41 -18.8,4.94 -28.08,7.6 -112.57,243.94 -125.95,521.99 -109.19,790.16 16.74,268.16 61.46,535.01 57.73,803.65 -1.45,104.37 -10.98,210.08 -31.83,312.76 -25.9,128.36 -69.42,252.01 -136.67,362.41 -17.59,28.81 -36.75,56.9 -57.73,83.77 -151.38,194.65 -379.89,317.47 -532.83,510.9 -94.13,119.08 -154.04,263.6 -176.82,413.65 -16.86,111 -13.5,225.01 11.34,334.33 14.1,-64 24.46,-128.48 28.44,-194.17 15.9,-0.12 32.06,0.61 48.45,2.17 3.13,0.24 6.51,0.73 9.76,0.97 -3.73,-21.94 -7.23,-43.87 -10.36,-66.05 0,0 0,0 0,-0.12 0.84,-87.62 10.36,-174.4 44.11,-254.55 66.88,-158.25 231.41,-270.33 403.15,-274.31 28.21,-0.6 57.85,1.69 81.36,17.35 1.56,0.97 3.01,2.05 4.45,3.26 0.97,0.6 1.94,1.45 2.89,2.29 1.22,0.85 2.3,1.8 3.26,2.89 0.24,0.12 0.37,0.24 0.6,0.49 127.28,-154.64 281.07,-288.54 384,-460.29 203.2,-339.03 175.24,-765.56 107.74,-1155.1"
         style="fill:#c6d9fc;fill-opacity:1;fill-rule:nonzero;stroke:none"
         id="path72" />
      <path
         d="m 6200.08,3927.15 c -6.03,-30.74 -21.21,-59.07 -45.8,-78.11 -43.03,-33.38 -103.05,-32.3 -156.92,-24.22 -140.05,20.73 -274.56,77.74 -386.88,163.79 -73.04,55.8 -136.68,123.54 -212.97,174.77 -45.8,30.6 -96.9,56.16 -130.89,99.42 -44.96,57.37 -51.71,137.4 -35.19,208.27 0,0.25 0.12,0.48 0.24,0.72 22.41,-40.97 57.37,-76.05 90.39,-107.62 101,-96.55 207.55,-187.06 318.91,-271.19 91.96,-69.42 189.34,-135.46 299.86,-167.77 84.13,-24.71 177.66,-27.35 259.25,1.94"
         style="fill:#4467d4;fill-opacity:1;fill-rule:nonzero;stroke:none"
         id="path74" />
      <path
         d="m 5306.99,3211.23 c -20.24,-14.47 -44.1,-24.47 -68.33,-30.25 -41.7,-9.88 -85.09,-8.43 -127.88,-4.95 -86.78,7.24 -176.44,24.23 -246.23,76.3 -43.39,32.42 -76.53,76.41 -114.49,115.1 -69.06,70.14 -155.61,122.81 -249.61,151.86 -42.3,13.14 -89.31,23.62 -116.79,58.22 -20.25,25.54 -25.43,59.05 -24.95,92.31 1.09,-0.23 2.17,-0.48 3.25,-0.59 96.55,-13.99 183.69,-59.79 261.79,-116.67 97.86,-71.35 184.4,-158.13 287.21,-222.25 107.14,-66.65 230.55,-106.91 356.5,-116.18 13.15,-0.97 26.4,-1.57 39.53,-2.9"
         style="fill:#4467d4;fill-opacity:1;fill-rule:nonzero;stroke:none"
         id="path76" />
      <g
         id="g78">
        <g
           id="g80"
           clip-path="url(#clipPath84)">
          <path
             d="m 3597.73,9507.29 c -21.23,-26.51 -41.23,-54.24 -60.02,-83.28 -26.53,-40.98 -49.78,-83.89 -70.64,-128 -202.12,-93.88 -531.14,-352.77 -531.14,-352.77 l -229.12,34.35 c 0,0 586.71,407.01 890.92,529.7"
             style="fill:url(#linearGradient90);fill-opacity:1;fill-rule:nonzero;stroke:none"
             id="path92" />
        </g>
      </g>
      <g
         id="g94">
        <g
           id="g96"
           clip-path="url(#clipPath100)">
          <path
             d="m 3446.35,7544.8 c -24.84,-109.32 -28.2,-223.33 -11.34,-334.33 l -444.61,-246.24 -54.47,1979.01 c 0,0 329.02,258.89 531.14,352.77 -30.37,-63.87 -55.68,-130.4 -78.21,-197.65 -109.08,-325.54 -155,-678.07 -87.5,-1014.7 36.39,-182.11 105.33,-358.08 144.99,-538.86"
             style="fill:url(#linearGradient106);fill-opacity:1;fill-rule:nonzero;stroke:none"
             id="path108" />
        </g>
      </g>
      <g
         id="g110">
        <g
           id="g112"
           clip-path="url(#clipPath116)">
          <path
             d="m 2990.4,6964.23 -176.08,81.6 -107.51,1931.76 229.12,-34.35 54.47,-1979.01"
             style="fill:url(#linearGradient122);fill-opacity:1;fill-rule:nonzero;stroke:none"
             id="path124" />
        </g>
      </g>
      <g
         id="g126">
        <g
           id="g128"
           clip-path="url(#clipPath132)">
          <path
             d="m 4202.39,6202.15 -1211.99,762.08 444.61,246.24 c 22.78,-150.05 82.69,-294.57 176.82,-413.65 152.94,-193.43 381.45,-316.25 532.83,-510.9 20.98,-26.87 40.14,-54.96 57.73,-83.77"
             style="fill:url(#linearGradient138);fill-opacity:1;fill-rule:nonzero;stroke:none"
             id="path140" />
        </g>
      </g>
      <g
         id="g142">
        <g
           id="g144"
           clip-path="url(#clipPath148)">
          <path
             d="m 4339.06,5839.74 c 0,0 -1002.75,582.85 -1297.08,758.46 -20.96,12.54 -38.44,22.9 -51.58,30.98 -28.45,17.35 -52.3,38.2 -72.31,61.46 -119.56,138 -103.77,355.19 -103.77,355.19 l 176.08,-81.6 1211.99,-762.08 c 67.25,-110.4 110.77,-234.05 136.67,-362.41"
             style="fill:url(#linearGradient154);fill-opacity:1;fill-rule:nonzero;stroke:none"
             id="path156" />
        </g>
      </g>
      <path
         d="M 9805.8,6175.89 9676.85,6099.35 8195.6,5220.48 8068.93,5145.41 7836.56,5007.53 6384.37,4145.9 4014.38,5495.05 7489.69,7501.17 9805.8,6175.89"
         style="fill:#ffffff;fill-opacity:1;fill-rule:nonzero;stroke:none"
         id="path158" />
      <path
         d="M 9676.85,6099.35 8195.6,5220.48 8068.93,5145.41 c -54,8.55 -107.75,19.64 -160.78,33.26 -82.32,21.09 -168.26,51.58 -219.71,119.07 -51.47,67.62 -47.97,182.24 26.76,222.61 59.89,32.42 121.24,2.9 174.03,-27.83 61.1,-35.56 104.01,-38.22 178.38,-30.14 137.63,14.82 269.36,68.82 387.36,139.69 161.02,96.66 300.59,224.54 445.58,343.85 144.99,119.45 299.62,232.86 477.52,293.12 56.76,19.29 119.67,32.78 175.95,12.05 63.65,-23.38 103.42,-85.45 122.83,-151.74"
         style="fill:#ecf3fe;fill-opacity:1;fill-rule:nonzero;stroke:none"
         id="path160" />
      <path
         d="M 3041.98,6598.2 V 4631.49 c -62.31,-64.36 -123.89,0 -123.89,0 v 2059.15 c 20.01,-23.26 43.86,-44.11 72.31,-61.46 13.14,-8.08 30.62,-18.44 51.58,-30.98"
         style="fill:#000e61;fill-opacity:1;fill-rule:nonzero;stroke:none"
         id="path162" />
      <g
         id="g164">
        <g
           id="g166"
           clip-path="url(#clipPath170)">
          <path
             d="M 11135.4,5112.62 V 3570.4 l -134.6,-81.48 -162,-97.99 -1116.76,-675.42 4.34,1559.47 1409.02,837.64"
             style="fill:url(#linearGradient176);fill-opacity:1;fill-rule:nonzero;stroke:none"
             id="path178" />
        </g>
      </g>
      <g
         id="g180">
        <g
           id="g182"
           clip-path="url(#clipPath186)">
          <path
             d="m 11135.4,5112.62 -1409.02,-837.64 -120.29,81.59 1174.91,690.72 242.7,142.71 111.7,-77.38"
             style="fill:url(#linearGradient192);fill-opacity:1;fill-rule:nonzero;stroke:none"
             id="path194" />
        </g>
      </g>
      <g
         id="g196">
        <g
           id="g198"
           clip-path="url(#clipPath202)">
          <path
             d="m 9726.38,4274.98 -4.34,-1559.47 -39.77,30.98 -76.18,59.3 v 1550.78 l 120.29,-81.59"
             style="fill:url(#linearGradient208);fill-opacity:1;fill-rule:nonzero;stroke:none"
             id="path210" />
        </g>
      </g>
      <g
         id="g212">
        <g
           id="g214"
           clip-path="url(#clipPath218)">
          <path
             d="m 9722.04,2715.51 c 0,0 -13.62,-9.52 -39.77,-18.92 -33.87,-12.3 -88.83,-24.46 -162.1,-15.78 -78.59,9.39 -178.38,42.54 -296.38,124.98 -55.56,38.81 -118.12,88.46 -184.77,142.46 -168,136.07 -362.77,299.86 -541.87,389.05 -46.89,23.38 -92.68,41.7 -136.67,52.91 -48.94,12.65 -95.69,16.63 -139.08,9.52 -3.63,-0.6 -7.24,-1.33 -10.74,-2.05 -3.36,-0.6 -6.62,-1.44 -9.76,-2.17 -6.38,-1.69 -12.77,-3.62 -19.03,-5.79 -2.05,-0.59 -3.99,-1.32 -5.91,-2.16 -11.21,-4.22 -22.18,-9.28 -32.79,-15.43 -4.33,-2.53 -8.79,-5.18 -13.13,-8.07 -3.14,-2.18 -6.15,-4.35 -9.29,-6.63 -3.13,-2.3 -6.14,-4.58 -9.16,-7.11 -3.01,-2.41 -6.02,-4.94 -9.03,-7.6 l -68.7,81.59 c 0,0 20.01,20.49 61.23,41.47 137.64,69.9 511.5,144.51 1163.06,-526.82 0,0 201.87,-163.31 347.94,-133.17 l 76.18,-59.3 39.77,-30.98"
             style="fill:url(#linearGradient224);fill-opacity:1;fill-rule:nonzero;stroke:none"
             id="path226" />
        </g>
      </g>
      <path
         d="m 6392.8,3918.59 -128.96,73.27 -2061.45,1172.82 -188.01,106.91 v 223.46 l 2369.99,-1349.15 8.43,-227.31"
         style="fill:#ecf3fe;fill-opacity:1;fill-rule:nonzero;stroke:none"
         id="path228" />
      <path
         d="M 9805.8,6175.89 V 5931.34 L 6629.02,4057.92 6392.8,3918.59 6384.37,4145.9 9805.8,6175.89"
         style="fill:#d8e4fd;fill-opacity:1;fill-rule:nonzero;stroke:none"
         id="path230" />
      <path
         d="M 6263.84,3991.86 V 1760.36 L 4202.39,2940.41 v 2224.27 l 15.43,-8.79 2046.02,-1164.03"
         style="fill:#ecf3fe;fill-opacity:1;fill-rule:nonzero;stroke:none"
         id="path232" />
      <path
         d="m 8195.6,5220.48 -359.04,-212.95 c -110.04,22.17 -208.39,86.29 -288.78,163.42 -65.08,62.55 -135.1,135.95 -155.95,226.83 -14.35,63.04 -2.3,128.72 73.64,128.72 112.32,0 242.85,-86.3 343.12,-130.05 116.31,-50.86 232.62,-101.72 349.05,-152.46 13.74,-6.02 28.08,-12.66 37.96,-23.51"
         style="fill:#ecf3fe;fill-opacity:1;fill-rule:nonzero;stroke:none"
         id="path234" />
      <path
         d="M 6629.02,4057.92 V 1963.81 l -365.18,-203.45 v 2231.5 l 128.96,-73.27 236.22,139.33"
         style="fill:#d8e4fd;fill-opacity:1;fill-rule:nonzero;stroke:none"
         id="path236" />
      <path
         d="M 10781,5047.29 9606.09,4356.57 V 3329.82 c -220.55,-67.13 -524.03,129.57 -670.1,239.12 -53.04,39.9 -85.34,68.22 -85.34,68.22 57.97,182.48 92.32,396.28 111.97,604.56 22.06,231.04 26.15,455.21 24.7,621.66 -1.2,134.38 -5.9,231.28 -7.71,264.19 -0.48,8.07 -0.72,12.29 -0.72,12.29 0,0 -889.23,-323.61 -1430.5,148.96 0,0 1.08,21.58 10.36,50.99 16.76,52.55 59.79,130.53 170.06,155.24 0,0 408.09,-232.02 794.74,68.7 261.29,203.2 579.6,538.01 905.62,766.76 156.32,109.81 314.44,195.14 469.07,229.85 75.94,17.11 142.96,27.12 202.66,30.85 h 0.1 c 226.1,13.74 346.1,-63.75 437.2,-193.92 36,-51.35 67.3,-110.89 99,-176.33 133,-274.92 143.8,-1173.67 143.8,-1173.67"
         style="fill:#ffffff;fill-opacity:1;fill-rule:nonzero;stroke:none"
         id="path238" />
      <path
         d="m 10100.9,6591.21 c -59.7,-3.73 -126.72,-13.74 -202.66,-30.85 -154.63,-34.71 -312.75,-120.04 -469.07,-229.85 l -52.19,152.59 c 0,0 8.92,5.18 25.07,14.1 84.97,46.4 369.16,192.72 583.69,193.08 22.26,0.13 43.76,-1.45 64.26,-4.81 l 50.9,-94.26"
         style="fill:#dde7fd;fill-opacity:1;fill-rule:nonzero;stroke:none"
         id="path240" />
      <g
         id="g242">
        <g
           id="g244"
           clip-path="url(#clipPath248)">
          <path
             d="m 9606.09,3172.3 v -366.51 c -146.07,-30.14 -347.94,133.17 -347.94,133.17 -651.56,671.33 -1025.42,596.72 -1163.06,526.82 127.15,267.68 471.37,141.85 471.37,141.85 647.33,-492.57 1039.63,-435.33 1039.63,-435.33"
             style="fill:url(#linearGradient254);fill-opacity:1;fill-rule:nonzero;stroke:none"
             id="path256" />
        </g>
      </g>
      <path
         d="M 9606.09,3329.82 V 3172.3 c 0,0 -392.3,-57.24 -1039.63,435.33 0,0 -344.22,125.83 -471.37,-141.85 -9.29,-4.7 -17.36,-9.41 -24.47,-13.74 -24.71,-15.43 -36.76,-27.73 -36.76,-27.73 l 34.83,-41.45 33.87,-40.14 c 3.01,2.66 6.02,5.19 9.03,7.6 3.02,2.53 6.03,4.81 9.16,7.11 3.14,2.28 6.15,4.45 9.29,6.63 4.34,2.89 8.8,5.54 13.13,8.07 10.61,6.15 21.58,11.21 32.79,15.43 1.92,0.84 3.86,1.57 5.91,2.16 6.26,2.17 12.65,4.1 19.03,5.79 3.14,0.73 6.4,1.57 9.76,2.17 3.5,0.72 7.11,1.45 10.74,2.05 V 2155.92 c -90.52,23.86 -162.11,68.7 -214.91,112.93 -73.39,61.47 -110.15,121.61 -110.15,121.61 -0.36,9.64 -1.33,25.67 -2.77,47.49 -15.19,230.56 -88.23,1095.92 -133.54,1630.33 -24.83,292.27 218.14,529.82 500.05,510.9 22.65,-1.45 45.68,-4.7 68.82,-9.64 365.07,-78.34 633.72,-327.82 633.72,-327.82 -16.52,-174.64 -43.27,-353.27 -85.7,-513.92 -8.19,-30.98 -16.87,-61.23 -26.27,-90.64 0,0 454.74,-398.93 755.44,-307.34"
         style="fill:#3749b7;fill-opacity:1;fill-rule:nonzero;stroke:none"
         id="path258" />
      <path
         d="M 8360.48,3390.21 V 1349.5 c -120.17,-21.6 -139.08,17.1 -139.08,17.1 v 2033.13 c 43.39,7.11 90.14,3.13 139.08,-9.52"
         style="fill:#000e61;fill-opacity:1;fill-rule:nonzero;stroke:none"
         id="path260" />
      <path
         d="m 8497.15,3337.3 -5.78,-853.67 -1.93,-296.61 -0.24,-34.23 c -45.56,-10.01 -88.47,-14.35 -128.72,-14.46 v 1251.88 c 43.99,-11.21 89.78,-29.53 136.67,-52.91"
         style="fill:#152c9d;fill-opacity:1;fill-rule:nonzero;stroke:none"
         id="path262" />
      <path
         d="m 8221.4,2155.92 v -409.66 c -259.02,61.23 -674.58,220.07 -990.96,595.5 0,0 6.04,34 22.42,68.71 17.47,37.24 46.89,75.33 93.64,73.03 l 547.07,-45.55 c 1.44,-21.82 2.41,-37.85 2.77,-47.49 0,0 108.35,-177.41 325.06,-234.54"
         style="fill:#28349d;fill-opacity:1;fill-rule:nonzero;stroke:none"
         id="path264" />
      <path
         d="m 8489.2,2152.79 -2.77,-70.51 -6.87,-175.24 c -3.02,-76.29 -52.67,-138.24 -119.08,-161.87 v 393.16 c 40.25,0.11 83.16,4.45 128.72,14.46"
         style="fill:#28349d;fill-opacity:1;fill-rule:nonzero;stroke:none"
         id="path266" />
      <path
         d="m 8986,4660.78 c -2.65,-128.24 -9.4,-272.27 -23.38,-419.06 0,0 -268.65,249.48 -633.72,327.82 -23.14,4.94 -46.17,8.19 -68.82,9.64 0,0 0,47.73 14.95,109.08 26.15,107.02 97.86,255.75 294.32,266.23 309.26,16.4 417.97,-91.11 417.97,-91.11 0.48,-60.75 0.37,-129.09 -1.32,-202.6"
         style="fill:#3749b7;fill-opacity:1;fill-rule:nonzero;stroke:none"
         id="path268" />
      <path
         d="m 9039.02,2948.25 v -464.62 c -78.34,-47.98 -254.06,-39.41 -385.55,-24.35 -91.84,10.61 -162.1,24.35 -162.1,24.35 l 5.78,853.67 c 70.03,-34.83 142.46,-81.24 214.77,-132.82 112.58,-80.27 224.78,-173.44 327.1,-256.23"
         style="fill:#3749b7;fill-opacity:1;fill-rule:nonzero;stroke:none"
         id="path270" />
      <path
         d="m 9039.02,2483.63 v -284.44 c 0,-88.71 -85.56,-152.35 -170.53,-126.67 l -379.05,114.5 0.96,148 0.97,148.61 c 0,0 414.48,-81.48 547.65,0"
         style="fill:#28349d;fill-opacity:1;fill-rule:nonzero;stroke:none"
         id="path272" />
      <path
         d="m 8489.44,2187.02 -0.24,0.12"
         style="fill:#94acd8;fill-opacity:1;fill-rule:nonzero;stroke:none"
         id="path274" />
      <path
         d="m 8489.44,2187.02 -0.24,0.12"
         style="fill:none;stroke:#000000;stroke-width:10;stroke-linecap:butt;stroke-linejoin:miter;stroke-miterlimit:10;stroke-dasharray:none;stroke-opacity:1"
         id="path276" />
      <path
         d="m 10142.4,7163.34 c -11.7,-167.29 -74.1,-326.02 -156.66,-473.06 -214.53,-0.36 -498.72,-146.68 -583.69,-193.08 -16.15,1.81 -32.3,4.22 -48.21,7.11 0.85,5.91 1.56,11.94 2.41,17.84 9.4,69.42 18.8,138.6 28.2,208.02 57.01,-6.86 118.96,12.06 154.99,56.77 36.17,44.72 39.3,115.95 0.12,158.01 -39.17,42.06 -118.83,39.29 -148.6,-9.76 32.42,55.56 38.81,125.71 16.99,186.33 -17.83,49.53 -54.36,92.08 -100.15,117.99 h -0.12 c -10.12,5.79 -20.61,10.73 -31.58,14.71 -82.32,30.12 -179.94,10.85 -255.27,55.8 -1.81,1.08 -3.61,2.29 -5.43,3.49 -47.6,30.98 -77.85,87.62 -76.77,144.51 1.2,59.17 36.04,116.55 88.11,144.75 138.48,75.21 275.63,172.59 430.99,199.35 119.93,20.61 247.55,11.57 358.8,-35.56 32.9,-13.86 64.24,-31.09 93.65,-51.82 170.22,-120.28 246.72,-343.38 232.22,-551.4"
         style="fill:#2743b9;fill-opacity:1;fill-rule:nonzero;stroke:none"
         id="path278" />
      <path
         d="m 9539.44,6786.94 c -36.03,-44.71 -97.98,-63.63 -154.99,-56.77 -9.4,-69.42 -18.8,-138.6 -28.2,-208.02 -54.6,-10.73 -113.53,-4.21 -164.64,18.44 -26.87,11.94 -51.58,27.72 -73.88,46.53 -56.4,47.24 -97.87,113.17 -121.36,183.55 -32.67,98.23 -33.51,204.65 -21.46,307.46 9.28,79.06 25.79,157.04 40.49,235.38 0.85,-0.6 1.82,-1.2 2.66,-1.69 0.96,-0.72 1.8,-1.2 2.77,-1.8 75.33,-44.95 172.95,-25.68 255.27,-55.8 60.38,-22.18 110.04,-72.2 131.85,-132.7 21.82,-60.62 15.43,-130.77 -16.99,-186.33 29.77,49.05 109.43,51.82 148.6,9.76 39.18,-42.06 36.05,-113.29 -0.12,-158.01"
         style="fill:#94acd8;fill-opacity:1;fill-rule:nonzero;stroke:none"
         id="path280" />
      <path
         d="M 9682.27,2696.59 V 586.902 c -98.83,-68.699 -162.1,6.399 -162.1,6.399 V 2680.81 c 73.27,-8.68 128.23,3.48 162.1,15.78"
         style="fill:#000e61;fill-opacity:1;fill-rule:nonzero;stroke:none"
         id="path282" />
      <path
         d="M 11000.8,3488.92 V 1321.3 c -98.7,-68.7 -162,6.4 -162,6.4 v 2063.23 l 162,97.99"
         style="fill:#000e61;fill-opacity:1;fill-rule:nonzero;stroke:none"
         id="path284" />
      <path
         d="m 6422.87,5714.57 672.99,360.85 922.19,-549.88 -630.07,-360.86 -965.11,549.89"
         style="fill:#ecf3fe;fill-opacity:1;fill-rule:nonzero;stroke:none"
         id="path286" />
      <path
         d="M 6263.84,3991.86 V 3208.34 C 5871.9,3581 4633.99,4757.8 4217.82,5155.89 L 6263.84,3991.86"
         style="fill:#d8e4fd;fill-opacity:1;fill-rule:nonzero;stroke:none"
         id="path288" />
      <path
         d="m 10142.4,7163.34 c -11.7,-167.29 -74.1,-326.02 -156.66,-473.06 -214.53,-0.36 -498.72,-146.68 -583.69,-193.08 -16.15,1.81 -32.3,4.22 -48.21,7.11 0.85,5.91 1.56,11.94 2.41,17.84 9.4,69.42 18.8,138.6 28.2,208.02 57.01,-6.86 118.96,12.06 154.99,56.77 36.17,44.72 39.3,115.95 0.12,158.01 -39.17,42.06 -118.83,39.29 -148.6,-9.76 32.42,55.56 38.81,125.71 16.99,186.33 -17.83,49.53 -54.36,92.08 -100.15,117.99 38.93,-7.83 75.57,-30.25 110.77,-46.28 93.64,-42.91 201.63,-57.61 301.18,-31.34 99.56,26.28 188.98,95.58 230.56,189.83 41.47,94.25 30.26,212 -35.67,291.19 -33.87,40.61 -82.56,74.84 -98.11,123.65 32.9,-13.86 64.24,-31.09 93.65,-51.82 170.22,-120.28 246.72,-343.38 232.22,-551.4"
         style="fill:#152c9d;fill-opacity:1;fill-rule:nonzero;stroke:none"
         id="path290" />
      <path
         d="m 9206.56,5221.93 c -75.69,-31.45 -151.38,-62.91 -226.95,-94.36 -0.48,8.07 -0.72,12.29 -0.72,12.29 0,0 -889.23,-323.61 -1430.5,148.96 0,0 1.08,21.58 10.36,50.99 55.8,-26.87 114.38,-66.65 165.36,-85.58 110.28,-40.85 224.66,-70.26 340.84,-88.46 230.44,-35.91 467.87,-27.24 694.83,26.64 129.92,30.73 256.35,76.29 375.55,136.55 26.27,13.26 53.27,27.48 82.68,28.68 29.4,1.21 61.95,-15.18 68.57,-43.86 10.01,-43.28 -39.17,-74.73 -80.02,-91.85"
         style="fill:#ecf3fe;fill-opacity:1;fill-rule:nonzero;stroke:none"
         id="path292" />
      <path
         d="m 8986,4660.78 c -2.65,-128.24 -9.4,-272.27 -23.38,-419.06 0,0 -268.65,249.48 -633.72,327.82 -23.14,4.94 -46.17,8.19 -68.82,9.64 0,0 0,47.73 14.95,109.08 11.2,3.97 22.66,7.7 34.1,11.69 190.07,65.2 402.43,65.8 591.66,-2.53 29.04,-10.49 57.61,-22.54 85.21,-36.64"
         style="fill:#152c9d;fill-opacity:1;fill-rule:nonzero;stroke:none"
         id="path294" />
      <path
         d="m 8210.66,3397.68 c 3.5,0.72 7.11,1.45 10.74,2.05 V 2155.92 c -90.52,23.86 -162.11,68.7 -214.91,112.93 53.16,107.39 39.06,232.86 42.19,350.48 4.22,160.9 8.44,321.68 12.66,482.58 2.53,93.65 4.94,187.3 7.35,280.95 l 33.87,-40.14 c 3.01,2.66 6.02,5.19 9.03,7.6 3.02,2.53 6.03,4.81 9.16,7.11 3.14,2.28 6.15,4.45 9.29,6.63 4.34,2.89 8.8,5.54 13.13,8.07 10.61,6.15 21.58,11.21 32.79,15.43 1.92,0.84 3.86,1.57 5.91,2.16 6.26,2.17 12.65,4.1 19.03,5.79 3.14,0.73 6.4,1.57 9.76,2.17"
         style="fill:#152c9d;fill-opacity:1;fill-rule:nonzero;stroke:none"
         id="path296" />
      <path
         d="M 9606.09,3329.82 V 3172.3 c 0,0 -392.3,-57.24 -1039.63,435.33 0,0 -344.22,125.83 -471.37,-141.85 -9.29,-4.7 -17.36,-9.41 -24.47,-13.74 1.69,63.15 3.26,126.19 4.94,189.34 2.29,84.73 6.27,174.88 54.6,244.43 71.59,102.68 219.83,124.86 339.64,89.06 119.92,-35.92 219.95,-116.9 322.04,-189.22 27.96,-19.89 56.4,-39.17 85.08,-57.85 -8.19,-30.98 -16.87,-61.23 -26.27,-90.64 0,0 454.74,-398.93 755.44,-307.34"
         style="fill:#152c9d;fill-opacity:1;fill-rule:nonzero;stroke:none"
         id="path298" />
      <path
         d="m 9039.02,2948.25 v -464.62 c -78.34,-47.98 -254.06,-39.41 -385.55,-24.35 -3.73,30.37 -1.08,62.19 1.69,92.92 17.84,195.62 35.67,391.11 53.51,586.71 1.57,16.99 1.69,40.62 3.25,65.57 112.58,-80.27 224.78,-173.44 327.1,-256.23"
         style="fill:#152c9d;fill-opacity:1;fill-rule:nonzero;stroke:none"
         id="path300" />
      <path
         d="m 8221.4,1965.97 v -219.71 c -259.02,61.23 -674.58,220.07 -990.96,595.5 0,0 6.04,34 22.42,68.71 2.65,-2.9 5.42,-5.79 8.2,-8.56 140.41,-141.49 330.23,-250.09 510.42,-332.04 141.37,-64.25 296.85,-113.06 449.92,-103.9"
         style="fill:#000e61;fill-opacity:1;fill-rule:nonzero;stroke:none"
         id="path302" />
      <path
         d="m 8486.43,2082.28 -6.87,-175.24 c -3.02,-76.29 -52.67,-138.24 -119.08,-161.87 v 294.81 c 40.14,16.87 87.74,29.52 125.95,42.3"
         style="fill:#000e61;fill-opacity:1;fill-rule:nonzero;stroke:none"
         id="path304" />
      <path
         d="m 9039.02,2318.02 v -118.83 c 0,-88.71 -85.56,-152.35 -170.53,-126.67 l -379.05,114.5 0.96,148 c 58.34,-40.62 153.31,-61.22 205.02,-69.3 100.15,-15.55 204.77,-4.58 298.41,34.83 14.82,6.26 29.89,13.26 45.19,17.47"
         style="fill:#000e61;fill-opacity:1;fill-rule:nonzero;stroke:none"
         id="path306" />
      <path
         d="m 6684.17,4672.93 c 0,-98.14 -178.08,-177.69 -397.73,-177.69 -219.66,0 -397.74,79.55 -397.74,177.69 0,98.12 178.08,177.68 397.74,177.68 219.65,0 397.73,-79.56 397.73,-177.68"
         style="fill:#ecf3fe;fill-opacity:1;fill-rule:nonzero;stroke:none"
         id="path308" />
      <path
         d="m 7728.81,5495.05 c -171.87,-38.58 -180.42,-206.23 -180.42,-206.23 -216.22,8.56 -259.25,174.64 -259.25,174.64 0,0 -0.13,8.56 0.36,22.79 1.81,58.81 13.02,214.05 79.9,257.92 55.44,36.28 109.68,6.14 139.58,-17.85 14.82,-11.92 23.62,-22.29 23.62,-22.29 0,0 11.08,4.82 28.32,5.3 17.96,0.61 42.79,-3.49 69.06,-22.41 29.53,-21.34 57.61,-81.11 76.29,-128.24 13.87,-35.31 22.54,-63.63 22.54,-63.63"
         style="fill:#94acd8;fill-opacity:1;fill-rule:nonzero;stroke:none"
         id="path310" />
      <path
         d="M 10781,5047.29 9606.09,4356.57 V 3329.82 c -220.55,-67.13 -524.03,129.57 -670.1,239.12 32.54,34.23 69.54,65.93 103.88,97.15 322.52,292.51 511.27,727 504.88,1162.33 -3.37,223.33 -55.08,443.3 -69.54,666.26 -14.35,222.85 13.98,461.01 150.53,637.82 141.14,182.83 378.16,270.69 608.76,283.35 103.1,5.54 203.6,-3.62 303.7,-18.56 36,-51.35 67.3,-110.89 99,-176.33 133,-274.92 143.8,-1173.67 143.8,-1173.67"
         style="fill:#ecf3fe;fill-opacity:1;fill-rule:nonzero;stroke:none"
         id="path312" />
      <path
         d="m 7728.81,5495.05 c -171.87,-38.58 -180.42,-206.23 -180.42,-206.23 -216.22,8.56 -259.25,174.64 -259.25,174.64 0,0 -0.13,8.56 0.36,22.79 18.08,-7.84 36.76,-13.99 52.55,-18.32 76.65,-21.58 162.1,-14.83 232.36,23.74 30.74,16.87 58.59,38.93 90.41,53.76 13.01,6.14 27.11,10.84 41.45,13.25 13.87,-35.31 22.54,-63.63 22.54,-63.63"
         style="fill:#6389c5;fill-opacity:1;fill-rule:nonzero;stroke:none"
         id="path314" />
      <g
         id="g316">
        <g
           id="g318"
           clip-path="url(#clipPath322)">
          <path
             d="m 6508.03,5129.91 v -305.14 c 57.96,4.24 103.83,52.75 103.83,111.76 v 81.62 c 0,59.01 -45.87,107.52 -103.83,111.76 z m -8.23,-377.75 h -64.09 v 450.36 h 64.09 c 101.67,0 184.37,-82.71 184.37,-184.37 v -81.62 c 0,-101.66 -82.7,-184.37 -184.37,-184.37"
             style="fill:url(#linearGradient328);fill-opacity:1;fill-rule:nonzero;stroke:none"
             id="path330" />
        </g>
      </g>
      <path
         d="m 7612.74,6072.23 -51.82,-362.9 c -17.24,-0.48 -28.32,-5.3 -28.32,-5.3 0,0 -8.8,10.37 -23.62,22.29 l 56.28,345.91 h 47.48"
         style="fill:#000e61;fill-opacity:1;fill-rule:nonzero;stroke:none"
         id="path332" />
      <g
         id="g334">
        <g
           id="g336"
           clip-path="url(#clipPath340)">
          <path
             d="m 6549.81,5285.93 c 0,-84.24 -142.35,-152.46 -317.95,-152.46 -175.61,0 -317.94,68.22 -317.94,152.46 0,84.25 142.33,152.47 317.94,152.47 175.6,0 317.95,-68.22 317.95,-152.47"
             style="fill:url(#linearGradient346);fill-opacity:1;fill-rule:nonzero;stroke:none"
             id="path348" />
        </g>
      </g>
      <g
         id="g350">
        <g
           id="g352"
           clip-path="url(#clipPath356)">
          <path
             d="M 6549.81,5285.93 V 4749.6 c 0,-84.24 -142.35,-152.46 -317.95,-152.46 -175.61,0 -317.94,68.22 -317.94,152.46 v 536.33 c 0,-84.24 142.33,-152.46 317.94,-152.46 175.6,0 317.95,68.22 317.95,152.46"
             style="fill:url(#linearGradient362);fill-opacity:1;fill-rule:nonzero;stroke:none"
             id="path364" />
        </g>
      </g>
      <g
         id="g366">
        <g
           id="g368"
           clip-path="url(#clipPath372)">
          <path
             d="m 6486.16,5285.93 c 0,-9.4 -2.28,-18.68 -6.5,-27.48 -26.04,-54.11 -127.04,-94.49 -247.8,-94.49 -120.77,0 -221.77,40.38 -247.8,94.49 -4.22,8.8 -6.51,18.08 -6.51,27.48 0,67.38 113.9,121.98 254.31,121.98 140.41,0 254.3,-54.6 254.3,-121.98"
             style="fill:url(#linearGradient378);fill-opacity:1;fill-rule:nonzero;stroke:none"
             id="path380" />
        </g>
      </g>
      <path
         d="m 6479.66,5258.45 c -26.04,-54.11 -127.04,-94.49 -247.8,-94.49 -120.77,0 -221.77,40.38 -247.8,94.49 25.79,54.24 127.03,94.74 247.8,94.74 120.76,0 222.01,-40.5 247.8,-94.74"
         style="fill:#ffaa2f;fill-opacity:1;fill-rule:nonzero;stroke:none"
         id="path382" />
      <path
         d="m 9539.44,6786.94 c -36.03,-44.71 -97.98,-63.63 -154.99,-56.77 -9.4,-69.42 -18.8,-138.6 -28.2,-208.02 -54.6,-10.73 -113.53,-4.21 -164.64,18.44 -26.87,11.94 -51.58,27.72 -73.88,46.53 73.28,50.97 128.96,127.03 183.92,196.32 24.83,31.34 50.38,64.01 60.63,102.82 8.19,31.21 5.78,63.99 6.27,96.17 0.72,48.93 7.22,101.37 -17.24,143.79 -32.06,55.68 -103.54,71.83 -166.69,83.76 -63.15,12.06 -134.75,31.94 -161.98,90.15 -1.81,3.74 -3.37,7.72 -4.58,11.69 0.96,-0.72 1.8,-1.2 2.77,-1.8 75.33,-44.95 172.95,-25.68 255.27,-55.8 60.38,-22.18 110.04,-72.2 131.85,-132.7 21.82,-60.62 15.43,-130.77 -16.99,-186.33 29.77,49.05 109.43,51.82 148.6,9.76 39.18,-42.06 36.05,-113.29 -0.12,-158.01"
         style="fill:#5b81bf;fill-opacity:1;fill-rule:nonzero;stroke:none"
         id="path384" />
      <path
         d="m 9932.3,9498.5 -2.78,-978.53 c -0.23,-96.3 67.5,-213.57 151.28,-262.02 l 844.4,-487.4"
         style="fill:none;stroke:#df6981;stroke-width:10;stroke-linecap:butt;stroke-linejoin:miter;stroke-miterlimit:10;stroke-dasharray:none;stroke-opacity:1"
         id="path386" />
      <g
         id="g388">
        <g
           id="g390"
           clip-path="url(#clipPath394)">
          <path
             d="m 10928,8749.09 -2.8,-978.54 v -6.74 c -0.1,-35.44 -9.4,-63.04 -25.3,-81.36 -27.3,-31.7 -74,-36.04 -127.1,-5.42 l -857.38,495.11 c -83.76,48.33 -151.49,165.6 -151.26,261.9 l 2.77,985.28 c 0.13,36.52 9.89,64.72 26.76,83.04 4.34,4.71 9.16,8.8 14.35,12.18 3.86,2.64 7.95,4.82 12.41,6.5 4.94,2.05 10.13,3.62 15.66,4.46 h 0.13 c 23.86,4.22 52.42,-1.8 82.92,-19.4 l 13.14,-7.6 844.4,-487.39 c 83.8,-48.46 151.5,-165.72 151.3,-262.02"
             style="fill:url(#linearGradient400);fill-opacity:1;fill-rule:nonzero;stroke:none"
             id="path402" />
        </g>
      </g>
      <g
         id="g404">
        <g
           id="g406"
           clip-path="url(#clipPath410)">
          <path
             d="m 11093.3,8835.02 -2.8,-985.29 c -0.1,-58.93 -25.8,-96.41 -64.8,-105.33 l -0.4,-0.13 -125.4,-61.82 c 15.9,18.32 25.2,45.92 25.3,81.36 v 6.74 l 2.8,978.54 c 0.2,96.3 -67.5,213.56 -151.3,262.02 l -844.4,487.39 -13.14,7.6 c -30.5,17.6 -59.06,23.62 -82.92,19.4 l 135.47,73.76 c 0,0.12 0.12,0.12 0.12,0.12 l 12.65,6.88 c 26.72,11.8 61.82,7.83 100.12,-14.22 l 857.5,-495.12 c 83.7,-48.33 151.4,-165.6 151.2,-261.9"
             style="fill:url(#linearGradient416);fill-opacity:1;fill-rule:nonzero;stroke:none"
             id="path418" />
        </g>
      </g>
      <path
         d="m 10482.9,8928.24 c -15.3,8.84 -29.1,13.81 -39.5,13.84 -54.4,0.14 -97.1,18.08 -97.1,18.08 0,0 -42.6,31.34 -96.9,93.92 -10.3,11.95 -24,22.83 -39.4,31.67 -64.8,37.41 -158.3,38.49 -149.2,-67.93 11.3,-131.55 69.2,-287.83 69.2,-287.83 0,0 -30.8,-330.57 71.1,-487.72 11.8,-18.18 21.9,-29.04 30.7,-34.1 66.8,-38.6 54.7,261.76 113,228.1 58.4,-33.71 44.6,-319.09 111.4,-357.69 8.8,-5.06 18.9,-5.88 30.8,-1.36 102.5,39.15 73.7,404.1 73.7,404.1 0,0 58.6,89.02 70.5,207.16 9.7,95.56 -83.5,202.35 -148.3,239.76"
         style="fill:#ffffff;fill-opacity:1;fill-rule:nonzero;stroke:none"
         id="path420" />
      <path
         d="m 7012.54,11493.5 -2.77,-978.5 c -0.25,-96.3 67.49,-213.6 151.26,-262 l 844.38,-487.42"
         style="fill:none;stroke:#df6981;stroke-width:10;stroke-linecap:butt;stroke-linejoin:miter;stroke-miterlimit:10;stroke-dasharray:none;stroke-opacity:1"
         id="path422" />
      <g
         id="g424">
        <g
           id="g426"
           clip-path="url(#clipPath430)">
          <path
             d="m 8008.18,10744.1 -2.77,-978.52 v -6.75 c -0.12,-35.42 -9.39,-63.03 -25.31,-81.35 -27.24,-31.69 -74,-36.04 -127.03,-5.42 l -857.41,495.14 c -83.76,48.3 -151.5,165.6 -151.26,261.9 l 2.78,985.3 c 0.12,36.5 9.88,64.7 26.76,83 4.33,4.7 9.15,8.8 14.33,12.2 3.86,2.6 7.96,4.8 12.41,6.5 4.96,2 10.13,3.6 15.68,4.4 h 0.12 c 23.86,4.3 52.43,-1.8 82.92,-19.4 l 13.13,-7.6 844.39,-487.4 c 83.77,-48.4 151.51,-165.7 151.26,-262"
             style="fill:url(#linearGradient436);fill-opacity:1;fill-rule:nonzero;stroke:none"
             id="path438" />
        </g>
      </g>
      <g
         id="g440">
        <g
           id="g442"
           clip-path="url(#clipPath446)">
          <path
             d="m 8173.55,10830.1 -2.78,-985.33 c -0.12,-58.93 -25.79,-96.42 -64.84,-105.34 l -0.36,-0.12 -125.47,-61.83 c 15.92,18.32 25.19,45.93 25.31,81.35 v 6.75 l 2.77,978.52 c 0.25,96.3 -67.49,213.6 -151.26,262 l -844.39,487.4 -13.13,7.6 c -30.49,17.6 -59.06,23.7 -82.92,19.4 l 135.46,73.8 c 0,0.1 0.13,0.1 0.13,0.1 l 12.66,6.9 c 26.75,11.8 61.82,7.8 100.14,-14.2 l 857.42,-495.1 c 83.77,-48.4 151.5,-165.6 151.26,-261.9"
             style="fill:url(#linearGradient452);fill-opacity:1;fill-rule:nonzero;stroke:none"
             id="path454" />
        </g>
      </g>
      <path
         d="m 7759.85,10690.2 -735.48,424.6 c -7.08,4.1 -12.88,0.8 -12.9,-7.4 -0.02,-8.1 5.73,-18.1 12.81,-22.1 l 735.5,-424.7 c 7.08,-4.1 12.78,-0.7 12.81,7.4 0.02,8.1 -5.66,18.1 -12.74,22.2"
         style="fill:#152c9d;fill-opacity:1;fill-rule:nonzero;stroke:none"
         id="path456" />
      <path
         d="m 7759.29,10489.3 -735.5,424.7 c -7.08,4.1 -12.86,0.8 -12.89,-7.4 -0.02,-8.1 5.73,-18 12.81,-22.1 l 735.49,-424.6 c 7.08,-4.1 12.79,-0.8 12.82,7.3 0.02,8.1 -5.65,18.1 -12.73,22.1"
         style="fill:#152c9d;fill-opacity:1;fill-rule:nonzero;stroke:none"
         id="path458" />
      <path
         d="m 7758.72,10288.5 -735.5,424.7 c -7.08,4.1 -12.87,0.9 -12.89,-7.3 -0.02,-8.1 5.73,-18.1 12.82,-22.2 l 735.48,-424.6 c 7.08,-4.1 12.8,-0.7 12.82,7.4 0.03,8.1 -5.65,18 -12.73,22"
         style="fill:#152c9d;fill-opacity:1;fill-rule:nonzero;stroke:none"
         id="path460" />
      <path
         d="m 7758.15,10087.8 -735.49,424.7 c -7.08,4.1 -12.87,0.8 -12.89,-7.4 -0.03,-8.1 5.72,-18.1 12.8,-22.2 l 735.5,-424.6 c 7.08,-4.1 12.79,-0.7 12.81,7.4 0.02,8.1 -5.65,18 -12.73,22.1"
         style="fill:#152c9d;fill-opacity:1;fill-rule:nonzero;stroke:none"
         id="path462" />
      <path
         d="m 8335.68,6305.21 c -32.16,24.94 -69.07,44.49 -103.73,65.72 -39.1,23.96 -78.2,47.91 -117.3,71.87 -74.81,45.84 -149.61,91.67 -224.41,137.5 -57,34.92 -132.25,73.28 -153.09,142.26 -8.25,27.32 -8.39,59.16 6.27,84.41 16.93,29.19 49.63,37.67 81.45,35.76 41.88,-2.51 83.5,-19.11 122.59,-33.18 42.09,-15.16 83.43,-32.29 123.9,-51.38 82.17,-38.75 160.5,-85.28 234.09,-138.52 18.88,-13.66 36.94,17.7 18.24,31.23 -129.17,93.44 -274.22,167.23 -426.89,213.74 -63.27,19.26 -146,27.13 -184.6,-39.4 -32.23,-55.55 -15,-125.29 23.31,-172.67 48.05,-59.42 123.53,-95.54 187.48,-134.72 74.8,-45.83 149.61,-91.66 224.41,-137.49 39.1,-23.97 78.21,-47.92 117.31,-71.88 30.36,-18.6 70.21,-37.72 81.88,-74.23 12.32,-38.51 -23.08,-61.57 -57.61,-61.39 -39.09,0.2 -79.37,18.23 -115.82,30.84 -169.18,58.56 -330.93,137.32 -482.09,233.18 2.8,4.02 5.44,8.18 7.91,12.53 35.34,62.33 19.88,140.99 -19,197.88 -50.09,73.29 -134.13,111.12 -212.84,145.41 -5.5,2.39 -12.88,4.13 -18.25,0 -24.62,-18.97 -49.24,-37.95 -73.86,-56.92 -7.78,-6.01 -11.76,-15.48 -6.48,-24.74 4.35,-7.66 17.02,-12.44 24.73,-6.49 22.42,17.28 44.84,34.56 67.26,51.83 60.16,-26.28 121.94,-54.5 167.87,-102.53 41.89,-43.79 69.44,-112.99 46.06,-172.38 -25.66,-65.18 -100.73,-88.68 -164.87,-88.7 -68.89,-0.02 -139.27,18.07 -201.54,47 -61.91,28.77 -117.4,68.87 -164.08,118.37 26.95,17.02 54.45,33.17 81.04,50.74 19.33,12.78 1.24,44.11 -18.25,31.22 -32.77,-21.66 -66.95,-41.05 -99.73,-62.7 -10.18,-6.74 -11.55,-19.3 -3.65,-28.4 98.87,-113.99 248.65,-189.84 400.66,-192.33 57.56,-0.95 119.48,14.25 162.55,52.86 135.52,-86.53 279.68,-159.09 429.95,-216.34 38.44,-14.65 77.27,-28.27 116.43,-40.84 35.75,-11.46 75.53,-22.71 112.6,-10.16 31.24,10.59 56.32,35.22 59.5,69.13 3.57,38.28 -20.63,71.6 -49.4,93.91"
         style="fill:#000e61;fill-opacity:1;fill-rule:nonzero;stroke:none"
         id="path464" />
      <g
         id="g466">
        <g
           id="g468"
           clip-path="url(#clipPath472)">
          <path
             d="m 8512.82,6592.78 c 0,-6.99 -2.17,-13.74 -6.27,-20.13 -17.84,-27.97 -71.95,-48.33 -135.83,-48.33 -63.99,0 -118.11,20.36 -135.95,48.33 -4.1,6.39 -6.26,13.14 -6.26,20.13 0,37.84 63.63,68.46 142.21,68.46 78.46,0 142.1,-30.62 142.1,-68.46"
             style="fill:url(#linearGradient478);fill-opacity:1;fill-rule:nonzero;stroke:none"
             id="path480" />
        </g>
      </g>
      <path
         d="m 8457.39,6607.1 c 0,-23.08 -38.82,-41.8 -86.73,-41.8 -47.89,0 -86.71,18.72 -86.71,41.8 0,23.08 38.82,41.79 86.71,41.79 47.91,0 86.73,-18.71 86.73,-41.79"
         style="fill:#000e61;fill-opacity:1;fill-rule:nonzero;stroke:none"
         id="path482" />
      <g
         id="g484">
        <g
           id="g486"
           clip-path="url(#clipPath490)">
          <path
             d="m 8512.82,6592.78 v -40.14 c 0,-37.84 -63.64,-68.45 -142.1,-68.45 -78.58,0 -142.21,30.61 -142.21,68.45 v 40.14 c 0,-6.99 2.16,-13.74 6.26,-20.13 17.84,-27.97 71.96,-48.33 135.95,-48.33 63.88,0 117.99,20.36 135.83,48.33 4.1,6.39 6.27,13.14 6.27,20.13"
             style="fill:url(#linearGradient496);fill-opacity:1;fill-rule:nonzero;stroke:none"
             id="path498" />
        </g>
      </g>
      <path
         d="m 5754.78,9995.56 c 70.64,-13.36 141.29,-26.72 211.93,-40.07 9.59,-1.82 19.5,2.66 22.24,12.62 2.43,8.82 -2.98,20.41 -12.63,22.24 -70.65,13.35 -141.29,26.75 -211.93,40.05 -9.58,1.8 -19.51,-2.6 -22.24,-12.6 -2.42,-8.8 2.99,-20.41 12.63,-22.24 v 0"
         style="fill:#94acd8;fill-opacity:1;fill-rule:nonzero;stroke:none"
         id="path500" />
      <path
         d="m 5555.79,9575.9 c 41.97,-53.49 83.95,-106.98 125.91,-160.46 6.03,-7.69 19.25,-6.32 25.57,0 7.59,7.58 6.05,17.86 0,25.56 -41.97,53.49 -83.94,106.98 -125.91,160.46 -6.03,7.7 -19.25,6.33 -25.57,0 -7.59,-7.59 -6.04,-17.85 0,-25.56 v 0"
         style="fill:#94acd8;fill-opacity:1;fill-rule:nonzero;stroke:none"
         id="path502" />
      <path
         d="m 5800.31,9691.2 c 55.07,-27.34 110.15,-54.67 165.22,-81.99 8.74,-4.35 19.57,-2.35 24.73,6.48 4.68,7.99 2.3,20.37 -6.48,24.74 -55.08,27.32 -110.15,54.65 -165.21,81.99 -8.75,4.33 -19.58,2.34 -24.74,-6.49 -4.68,-7.99 -2.3,-20.38 6.48,-24.73 v 0"
         style="fill:#94acd8;fill-opacity:1;fill-rule:nonzero;stroke:none"
         id="path504" />
    </g>
  </g>
</svg>
